<svg width="24" height="24" viewBox="0 0 24 24" fill="none" xmlns="http://www.w3.org/2000/svg">
<path d="M6.17647 3H8.29412V4.05882H6.17647C5.61484 4.05882 5.0762 4.28193 4.67907 4.67907C4.28193 5.0762 4.05882 5.61484 4.05882 6.17647V8.29412H3V6.17647C3 5.33402 3.33466 4.52607 3.93037 3.93037C4.52607 3.33466 5.33402 3 6.17647 3ZM4.05882 17.8235C4.05882 18.3852 4.28193 18.9238 4.67907 19.3209C5.0762 19.7181 5.61484 19.9412 6.17647 19.9412H8.29412V21H6.17647C5.33402 21 4.52607 20.6653 3.93037 20.0696C3.33466 19.4739 3 18.666 3 17.8235V15.7059H4.05882V17.8235ZM17.8235 3C18.666 3 19.4739 3.33466 20.0696 3.93037C20.6653 4.52607 21 5.33402 21 6.17647V8.29412H19.9412V6.17647C19.9412 5.61484 19.7181 5.0762 19.3209 4.67907C18.9238 4.28193 18.3852 4.05882 17.8235 4.05882H15.7059V3H17.8235ZM21 17.8235C21 18.666 20.6653 19.4739 20.0696 20.0696C19.4739 20.6653 18.666 21 17.8235 21H15.7059V19.9412H17.8235C18.3852 19.9412 18.9238 19.7181 19.3209 19.3209C19.7181 18.9238 19.9412 18.3852 19.9412 17.8235V15.7059H21V17.8235Z" fill="#2D3469"/>
</svg>
