<svg width="129" height="129" viewBox="0 0 129 129" fill="none" xmlns="http://www.w3.org/2000/svg">
<rect width="129" height="129" rx="30" fill="#2E3A59"/>
<path d="M24.5113 109.542C22.4754 101.965 20.4394 91.471 20.4867 78.9533C20.5341 66.765 22.3807 56.5063 24.3693 49.071C31.1401 49.071 38.0057 49.071 44.7293 49.071C42.7405 57.212 40.7993 66.812 41.983 78.2473C43.3088 90.2473 22.9488 100.883 24.5113 109.542Z" fill="url(#paint0_linear)"/>
<path d="M65.4678 104.835C89.2843 104.835 108.555 85.6823 108.555 62.0118C108.555 38.3412 89.2843 19.1882 65.4678 19.1882C41.6515 19.1882 22.3807 38.3412 22.3807 62.0118C22.3807 85.6823 41.699 104.835 65.4678 104.835ZM65.4678 39.3294C78.0625 39.3294 88.3373 49.494 88.3373 62.0588C88.3373 74.6235 78.11 84.7883 65.4678 84.7883C52.8733 84.7883 42.5985 74.6235 42.5985 62.0588C42.5985 49.494 52.8733 39.3294 65.4678 39.3294Z" fill="url(#paint1_linear)"/>
<path d="M65.468 19.1882C43.8297 19.1882 26.3108 36.6471 26.3108 58.153C26.3108 79.6588 43.8297 97.1178 65.5152 97.1178C87.1535 97.1178 104.72 79.7058 104.72 58.153C104.72 36.6 87.1062 19.1882 65.468 19.1882ZM65.468 84.7413C52.8732 84.7413 42.5987 74.5765 42.5987 62.0118C42.5987 49.447 52.826 39.2824 65.468 39.2824C78.0627 39.2824 88.3372 49.447 88.3372 62.0118C88.3372 74.5765 78.11 84.7413 65.468 84.7413Z" fill="url(#paint2_linear)"/>
<defs>
<linearGradient id="paint0_linear" x1="67.737" y1="84.639" x2="-16.99" y2="70.8278" gradientUnits="userSpaceOnUse">
<stop stop-color="#173CFF"/>
<stop offset="1" stop-color="#00FFF2"/>
</linearGradient>
<linearGradient id="paint1_linear" x1="108.559" y1="62.0145" x2="22.3849" y2="62.0145" gradientUnits="userSpaceOnUse">
<stop stop-color="#173CFF"/>
<stop offset="1" stop-color="#00FFF2"/>
</linearGradient>
<linearGradient id="paint2_linear" x1="14.363" y1="108.929" x2="98.1312" y2="24.6448" gradientUnits="userSpaceOnUse">
<stop stop-color="#173CFF"/>
<stop offset="1" stop-color="#00FFF2"/>
</linearGradient>
</defs>
</svg>
