<svg width="36" height="36" viewBox="0 0 36 36" fill="none" xmlns="http://www.w3.org/2000/svg">
<rect width="36" height="36" rx="7" fill="#2D3469"/>
<path d="M17.9989 12.7991C16.6192 12.7991 15.2961 13.3472 14.3205 14.3228C13.3449 15.2983 12.7969 16.6215 12.7969 18.0011C12.7969 19.3808 13.3449 20.7039 14.3205 21.6795C15.2961 22.6551 16.6192 23.2031 17.9989 23.2031C19.3785 23.2031 20.7017 22.6551 21.6772 21.6795C22.6528 20.7039 23.2009 19.3808 23.2009 18.0011C23.2009 16.6215 22.6528 15.2983 21.6772 14.3228C20.7017 13.3472 19.3785 12.7991 17.9989 12.7991V12.7991ZM17.9989 21.3795C17.1026 21.3795 16.243 21.0235 15.6092 20.3897C14.9754 19.7559 14.6194 18.8963 14.6194 18C14.6194 17.1037 14.9754 16.2441 15.6092 15.6103C16.243 14.9766 17.1026 14.6205 17.9989 14.6205C18.8952 14.6205 19.7548 14.9766 20.3885 15.6103C21.0223 16.2441 21.3784 17.1037 21.3784 18C21.3784 18.8963 21.0223 19.7559 20.3885 20.3897C19.7548 21.0235 18.8952 21.3795 17.9989 21.3795V21.3795Z" fill="white"/>
<path d="M23.4066 13.8206C24.0764 13.8206 24.6193 13.2776 24.6193 12.6079C24.6193 11.9381 24.0764 11.3951 23.4066 11.3951C22.7368 11.3951 22.1938 11.9381 22.1938 12.6079C22.1938 13.2776 22.7368 13.8206 23.4066 13.8206Z" fill="white"/>
<path d="M27.5996 11.3749C27.3391 10.7023 26.9411 10.0916 26.4311 9.58168C25.921 9.0718 25.3101 8.67405 24.6374 8.41387C23.8503 8.11839 23.0188 7.95862 22.1782 7.94137C21.0948 7.89412 20.7517 7.88062 18.0044 7.88062C15.2572 7.88062 14.9051 7.88062 13.8307 7.94137C12.9908 7.95774 12.1598 8.11754 11.3737 8.41387C10.7009 8.67374 10.0898 9.07139 9.5797 9.58131C9.06959 10.0912 8.6717 10.7021 8.41157 11.3749C8.11604 12.1619 7.95664 12.9936 7.9402 13.8341C7.89182 14.9164 7.8772 15.2595 7.8772 18.0079C7.8772 20.7551 7.8772 21.105 7.9402 22.1816C7.95707 23.0231 8.1157 23.8534 8.41157 24.642C8.67243 25.3145 9.07071 25.9251 9.58094 26.435C10.0912 26.9448 10.7021 27.3426 11.3748 27.603C12.1594 27.9103 12.9907 28.0815 13.8329 28.1092C14.9163 28.1565 15.2594 28.1711 18.0067 28.1711C20.7539 28.1711 21.1061 28.1711 22.1804 28.1092C23.0209 28.0921 23.8525 27.9328 24.6397 27.6379C25.3122 27.3771 25.9229 26.979 26.4329 26.469C26.9429 25.9589 27.341 25.3482 27.6018 24.6757C27.8977 23.8882 28.0563 23.058 28.0732 22.2165C28.1216 21.1342 28.1362 20.7911 28.1362 18.0427C28.1362 15.2944 28.1362 14.9456 28.0732 13.869C28.0601 13.0165 27.8999 12.1728 27.5996 11.3749V11.3749ZM26.2293 22.0984C26.2221 22.7467 26.1037 23.389 25.8794 23.9974C25.7105 24.4348 25.4519 24.8321 25.1202 25.1636C24.7884 25.4951 24.391 25.7535 23.9534 25.9222C23.3518 26.1455 22.7164 26.2638 22.0747 26.2721C21.0059 26.3216 20.7044 26.334 17.9639 26.334C15.2212 26.334 14.9411 26.334 13.8521 26.2721C13.2107 26.2643 12.5756 26.1459 11.9744 25.9222C11.5353 25.7546 11.1363 25.4966 10.8032 25.1651C10.4701 24.8335 10.2103 24.4357 10.0406 23.9974C9.81945 23.3955 9.70117 22.7608 9.6907 22.1197C9.64232 21.051 9.63107 20.7495 9.63107 18.009C9.63107 15.2674 9.63107 14.9872 9.6907 13.8971C9.69797 13.2491 9.81631 12.6072 10.0406 11.9992C10.3837 11.1116 11.0868 10.413 11.9744 10.0732C12.5759 9.85065 13.2109 9.73232 13.8521 9.72337C14.9219 9.67499 15.2223 9.66149 17.9639 9.66149C20.7056 9.66149 20.9868 9.66149 22.0747 9.72337C22.7164 9.73108 23.352 9.84944 23.9534 10.0732C24.391 10.2423 24.7884 10.501 25.12 10.8326C25.4517 11.1643 25.7104 11.5617 25.8794 11.9992C26.1006 12.6011 26.2188 13.2358 26.2293 13.8769C26.2777 14.9467 26.2901 15.2471 26.2901 17.9887C26.2901 20.7292 26.2901 21.024 26.2417 22.0995H26.2293V22.0984Z" fill="white"/>
</svg>
