<svg width="40" height="40" viewBox="0 0 40 40" fill="none" xmlns="http://www.w3.org/2000/svg">
<path d="M20.0033 35.0683C15.9032 35.0683 15.4199 35.0466 13.8199 34.9766C12.5722 34.9356 11.3406 34.682 10.1782 34.2266C8.16708 33.444 6.5768 31.8531 5.7949 29.8416C5.35708 28.675 5.12093 27.4425 5.09657 26.1966C5.00323 24.6 5.00323 24.0766 5.00323 20.0083C5.00323 15.8966 5.0249 15.4166 5.09657 13.825C5.12147 12.5809 5.3576 11.35 5.7949 10.185C6.57595 8.17085 8.16882 6.5786 10.1832 5.7983C11.3477 5.35865 12.5788 5.12188 13.8232 5.0983C15.4149 5.0083 15.9382 5.0083 20.0033 5.0083C24.1367 5.0083 24.6117 5.02997 26.1867 5.0983C27.4342 5.12208 28.6687 5.35882 29.8367 5.7983C31.8505 6.57948 33.443 8.17143 34.225 10.185C34.6702 11.367 34.9075 12.6171 34.9267 13.88C35.02 15.4767 35.02 15.9983 35.02 20.065C35.02 24.1316 34.9967 24.665 34.9267 26.2433C34.9018 27.4903 34.665 28.724 34.2267 29.8916C33.4426 31.9045 31.85 33.496 29.8367 34.2783C28.6703 34.7153 27.4385 34.9515 26.1933 34.9766C24.6017 35.0683 24.08 35.0683 20.0033 35.0683ZM19.9467 7.64663C15.8699 7.64663 15.4466 7.66663 13.8549 7.7383C12.9049 7.7509 11.964 7.92622 11.0732 8.25663C9.75783 8.75998 8.71695 9.79663 8.20824 11.11C7.87527 12.0105 7.69992 12.9616 7.6899 13.9216C7.60157 15.5366 7.60157 15.96 7.60157 20.0083C7.60157 24.0083 7.61657 24.4933 7.6899 26.0983C7.70483 27.0486 7.88007 27.9896 8.20824 28.8816C8.7177 30.1941 9.7584 31.23 11.0732 31.7333C11.9634 32.066 12.9047 32.2413 13.8549 32.2516C15.4682 32.345 15.8932 32.345 19.9467 32.345C24.035 32.345 24.4583 32.325 26.0366 32.2516C26.9873 32.2401 27.9288 32.0648 28.82 31.7333C30.1273 31.2256 31.1615 30.1921 31.67 28.885C32.0023 27.9838 32.1775 27.0321 32.1883 26.0716H32.2067C32.2783 24.4783 32.2783 24.0533 32.2783 19.9816C32.2783 15.91 32.26 15.4816 32.1883 13.89C32.1733 12.9407 31.998 12.0008 31.67 11.11C31.1627 9.80093 30.1283 8.76547 28.82 8.25663C27.929 7.92455 26.9873 7.74918 26.0366 7.7383C24.425 7.64663 24.0033 7.64663 19.9467 7.64663ZM20.0033 27.7066C16.8865 27.7086 14.0756 25.8328 12.8814 22.9541C11.6871 20.0753 12.3448 16.7605 14.5476 14.5558C16.7505 12.351 20.0646 11.6904 22.9445 12.8822C25.8243 14.074 27.7025 16.8833 27.7033 20C27.6987 24.2518 24.255 27.6983 20.0033 27.7066ZM20.0033 14.9966C17.2418 14.9966 15.0032 17.2353 15.0032 19.9966C15.0032 22.7581 17.2418 24.9966 20.0033 24.9966C22.7647 24.9966 25.0033 22.7581 25.0033 19.9966C24.9968 17.2378 22.762 15.0031 20.0033 14.9966ZM28.0033 13.8083C27.0123 13.8046 26.2115 12.9993 26.2133 12.0083C26.2151 11.0174 27.019 10.215 28.01 10.215C29.0008 10.215 29.8047 11.0173 29.8067 12.0083C29.807 12.4864 29.617 12.945 29.2787 13.2828C28.9403 13.6205 28.4813 13.8096 28.0033 13.8083Z" fill="#2E3A59"/>
</svg>
