<svg width="40" height="40" viewBox="0 0 40 40" fill="none" xmlns="http://www.w3.org/2000/svg">
<path d="M4.20453 37.8165C3.39014 34.7859 2.57575 30.5883 2.59468 25.5812C2.61362 20.7059 3.35226 16.6024 4.14771 13.6283C6.85605 13.6283 9.60226 13.6283 12.2917 13.6283C11.4962 16.8847 10.7197 20.7247 11.1932 25.2988C11.7235 30.0988 3.57953 34.353 4.20453 37.8165Z" fill="url(#paint0_linear)"/>
<path d="M20.5871 35.9341C30.1137 35.9341 37.822 28.2729 37.822 18.8047C37.822 9.33647 30.1137 1.67529 20.5871 1.67529C11.0606 1.67529 3.35229 9.33647 3.35229 18.8047C3.35229 28.2729 11.0796 35.9341 20.5871 35.9341ZM20.5871 9.73176C25.625 9.73176 29.7349 13.7976 29.7349 18.8235C29.7349 23.8494 25.644 27.9153 20.5871 27.9153C15.5493 27.9153 11.4394 23.8494 11.4394 18.8235C11.4394 13.7976 15.5493 9.73176 20.5871 9.73176Z" fill="url(#paint1_linear)"/>
<path d="M20.5872 1.67529C11.9319 1.67529 4.92432 8.65882 4.92432 17.2612C4.92432 25.8635 11.9319 32.8471 20.6061 32.8471C29.2614 32.8471 36.2879 25.8823 36.2879 17.2612C36.2879 8.64 29.2425 1.67529 20.5872 1.67529ZM20.5872 27.8965C15.5493 27.8965 11.4395 23.8306 11.4395 18.8047C11.4395 13.7788 15.5304 9.71294 20.5872 9.71294C25.6251 9.71294 29.7349 13.7788 29.7349 18.8047C29.7349 23.8306 25.644 27.8965 20.5872 27.8965Z" fill="url(#paint2_linear)"/>
<defs>
<linearGradient id="paint0_linear" x1="21.4948" y1="27.8555" x2="-12.396" y2="22.331" gradientUnits="userSpaceOnUse">
<stop stop-color="#173CFF"/>
<stop offset="1" stop-color="#00FFF2"/>
</linearGradient>
<linearGradient id="paint1_linear" x1="37.8236" y1="18.8058" x2="3.35394" y2="18.8058" gradientUnits="userSpaceOnUse">
<stop stop-color="#173CFF"/>
<stop offset="1" stop-color="#00FFF2"/>
</linearGradient>
<linearGradient id="paint2_linear" x1="0.145189" y1="37.5715" x2="33.6525" y2="3.85791" gradientUnits="userSpaceOnUse">
<stop stop-color="#173CFF"/>
<stop offset="1" stop-color="#00FFF2"/>
</linearGradient>
</defs>
</svg>
