<svg width="35" height="35" viewBox="0 0 35 35" fill="none" xmlns="http://www.w3.org/2000/svg">
<circle cx="17.5" cy="17.5" r="17.5" fill="#6C63FF"/>
<path d="M24.7059 10.3092C24.2682 9.86001 23.6205 9.69266 23.0165 9.86882L8.93195 13.9646C8.29469 14.1416 7.843 14.6498 7.72133 15.2955C7.59703 15.9526 8.0312 16.7867 8.59844 17.1355L13.0024 19.8422C13.454 20.1197 14.037 20.0501 14.4108 19.6731L19.4538 14.5988C19.7076 14.3345 20.1278 14.3345 20.3816 14.5988C20.6355 14.8542 20.6355 15.2682 20.3816 15.5324L15.3299 20.6076C14.9553 20.9837 14.8853 21.5695 15.161 22.024L17.8518 26.472C18.167 27.0005 18.7097 27.3 19.3049 27.3C19.375 27.3 19.4538 27.3 19.5238 27.2912C20.2066 27.2031 20.7493 26.7363 20.9506 26.0757L25.1261 12.0092C25.3099 11.4102 25.1436 10.7584 24.7059 10.3092Z" fill="white"/>
</svg>
