<svg width="40" height="40" viewBox="0 0 40 40" fill="none" xmlns="http://www.w3.org/2000/svg">
<path d="M14.3014 21.0195L30.0628 11.3121C30.3461 11.1381 30.6375 11.5211 30.3943 11.7468L17.3865 23.8381C16.9293 24.2637 16.6344 24.8333 16.5508 25.4515L16.1077 28.7352C16.0491 29.1737 15.4331 29.2172 15.3121 28.7929L13.608 22.8049C13.4128 22.1219 13.6973 21.3924 14.3014 21.0195Z" fill="#222C47"/>
<path d="M3.61817 19.6118L11.6829 22.6218L14.8044 32.6607C15.0042 33.3036 15.7904 33.5413 16.3122 33.1146L20.8076 29.4499C21.2788 29.0659 21.9501 29.0468 22.4425 29.4043L30.5506 35.2909C31.1088 35.6967 31.8998 35.3908 32.0398 34.7162L37.9794 6.14561C38.1322 5.40876 37.4082 4.79401 36.7065 5.06539L3.60874 17.8334C2.79198 18.1484 2.79909 19.3048 3.61817 19.6118ZM14.3014 21.0195L30.0628 11.312C30.3461 11.138 30.6375 11.5211 30.3943 11.7467L17.3865 23.8381C16.9293 24.2637 16.6344 24.8332 16.5508 25.4515L16.1077 28.7352C16.0491 29.1736 15.4331 29.2171 15.3121 28.7928L13.608 22.8049C13.4128 22.1218 13.6973 21.3924 14.3014 21.0195Z" fill="#2E3A59"/>
</svg>
