<svg width="560" height="417" viewBox="0 0 560 417" fill="none" xmlns="http://www.w3.org/2000/svg">
<path opacity="0.1" d="M319.48 58.4796C285.352 57.3037 252.849 46.3322 221.812 34.3318C190.774 22.3314 160.032 9.01869 126.722 2.68253C105.298 -1.41209 80.794 -1.98953 63.5352 9.44915C46.9304 20.4521 41.5518 39.4658 38.6674 57.0727C36.4949 70.3329 35.2189 84.2914 41.1669 96.7065C45.301 105.326 52.6305 112.571 57.7032 120.823C75.3522 149.553 62.8761 184.977 43.756 213.025C34.7917 226.18 24.3774 238.748 17.4539 252.738C10.5303 266.728 7.32959 282.791 13.3883 297.08C19.3891 311.254 33.6949 321.879 49.1925 329.359C80.6674 344.557 117.742 348.903 153.921 351.371C233.982 356.82 314.465 354.463 394.737 352.095C424.445 351.224 454.28 350.336 483.504 345.764C499.734 343.223 516.487 339.192 528.272 329.459C543.226 317.107 546.933 296.193 536.909 280.702C520.099 254.722 473.632 248.27 461.868 220.39C455.403 205.041 462.042 187.948 471.444 173.717C491.608 143.18 525.403 116.392 527.18 81.4934C528.404 57.5242 512.158 33.5181 487.037 22.174C460.708 10.2838 424.192 11.7799 404.777 31.4551C384.765 51.7234 349.605 59.5242 319.48 58.4796Z" fill="#6C63FF"/>
<path d="M136.841 64.8209H0V201.051H136.841V64.8209Z" fill="#E8E9ED"/>
<path d="M560 64.8209H423.159V201.051H560V64.8209Z" fill="#E8E9ED"/>
<path opacity="0.5" d="M76.6651 16.8141L75.2994 15.423C75.2723 15.3928 75.2389 15.3687 75.2016 15.3524C75.1643 15.3361 75.124 15.3279 75.0832 15.3285C75.0424 15.3272 75.0018 15.335 74.9644 15.3514C74.927 15.3677 74.8937 15.3922 74.867 15.423L65.4282 24.8721L61.9902 21.4547C61.9626 21.4251 61.9291 21.4015 61.8919 21.3854C61.8547 21.3693 61.8146 21.3609 61.774 21.3609C61.7334 21.3609 61.6933 21.3693 61.6561 21.3854C61.6189 21.4015 61.5854 21.4251 61.5578 21.4547L60.1815 22.8248C60.1515 22.8532 60.1277 22.8874 60.1113 22.9253C60.095 22.9632 60.0866 23.0041 60.0866 23.0453C60.0866 23.0865 60.095 23.1273 60.1113 23.1652C60.1277 23.2031 60.1515 23.2373 60.1815 23.2658L64.516 27.5756C64.7487 27.8322 65.0715 27.99 65.4177 28.0166C65.7597 27.9868 66.0796 27.836 66.3194 27.5914L76.6704 17.2551C76.7249 17.1944 76.755 17.1159 76.755 17.0346C76.755 16.9532 76.7249 16.8748 76.6704 16.8141H76.6651Z" fill="#3ACC6C"/>
<path opacity="0.5" d="M68.4181 7.81124C71.6371 7.81353 74.7557 8.92676 77.2428 10.9613C79.7299 12.9958 81.4315 15.8258 82.0578 18.9692C82.6841 22.1126 82.1964 25.3749 80.6778 28.2005C79.1591 31.0261 76.7034 33.2401 73.729 34.4654C70.7546 35.6908 67.4455 35.8516 64.3653 34.9206C61.2851 33.9896 58.6244 32.0243 56.8365 29.3595C55.0485 26.6946 54.2439 23.4951 54.5596 20.3059C54.8753 17.1168 56.2919 14.1352 58.568 11.8691C59.8589 10.5782 61.3942 9.55483 63.0849 8.85831C64.7756 8.16179 66.5883 7.8059 68.4181 7.81124ZM68.4181 5.65369C65.2338 5.65369 62.1211 6.59378 59.4736 8.35505C56.8261 10.1163 54.7627 12.6197 53.5443 15.5485C52.326 18.4773 52.0075 21.7 52.6291 24.809C53.2507 27.9181 54.7845 30.7738 57.0365 33.0149C59.2884 35.2561 62.1574 36.7821 65.2806 37.3999C68.4038 38.0177 71.6409 37.6996 74.5824 36.4857C77.524 35.2719 80.0379 33.2169 81.8062 30.5806C83.5745 27.9443 84.5178 24.8452 84.5168 21.6752C84.5175 19.5706 84.1015 17.4865 83.2926 15.542C82.4838 13.5975 81.2979 11.8308 79.8028 10.3429C78.3077 8.85494 76.5327 7.67494 74.5792 6.87034C72.6257 6.06574 70.5321 5.65231 68.4181 5.65369Z" fill="#6C63FF"/>
<path opacity="0.8" d="M182.353 61.6083L180.634 59.8549C180.6 59.8179 180.559 59.7885 180.512 59.7686C180.466 59.7487 180.416 59.7388 180.365 59.7394C180.314 59.7373 180.263 59.7465 180.215 59.7665C180.168 59.7865 180.125 59.8167 180.091 59.8549L168.211 71.7713L163.882 67.4667C163.847 67.4302 163.806 67.4011 163.759 67.3813C163.713 67.3614 163.663 67.3512 163.613 67.3512C163.562 67.3511 163.511 67.3612 163.464 67.3811C163.417 67.4009 163.374 67.4301 163.339 67.4667L161.604 69.1938C161.566 69.2291 161.536 69.2718 161.515 69.3192C161.495 69.3666 161.484 69.4177 161.484 69.4694C161.484 69.521 161.495 69.5722 161.515 69.6196C161.536 69.667 161.566 69.7096 161.604 69.745L167.056 75.1625C167.351 75.4847 167.759 75.682 168.195 75.7137C168.622 75.6772 169.022 75.4912 169.324 75.1887L182.348 62.149C182.409 62.0749 182.442 61.9822 182.442 61.8865C182.442 61.7908 182.409 61.6981 182.348 61.624L182.353 61.6083Z" fill="#3ACC6C"/>
<path opacity="0.8" d="M171.965 50.2693C176.021 50.2702 179.952 51.6711 183.087 54.2334C186.222 56.7957 188.367 60.3608 189.158 64.3213C189.949 68.2818 189.336 72.3928 187.423 75.9538C185.511 79.5148 182.417 82.3055 178.67 83.8504C174.922 85.3954 170.752 85.5991 166.871 84.4267C162.99 83.2543 159.637 80.7785 157.383 77.421C155.13 74.0635 154.115 70.032 154.513 66.0134C154.91 61.9948 156.695 58.2378 159.563 55.3823C161.187 53.755 163.12 52.465 165.249 51.5873C167.378 50.7096 169.661 50.2616 171.965 50.2693ZM171.965 47.5553C167.957 47.5553 164.04 48.7385 160.707 50.9552C157.375 53.1719 154.777 56.3227 153.243 60.009C151.71 63.6952 151.308 67.7515 152.09 71.6649C152.872 75.5782 154.802 79.1729 157.636 81.9942C160.47 84.8156 164.081 86.737 168.012 87.5154C171.943 88.2938 176.017 87.8943 179.72 86.3674C183.423 84.8405 186.588 82.2547 188.815 78.9372C191.041 75.6196 192.23 71.7192 192.23 67.7292C192.23 65.0797 191.707 62.4561 190.689 60.0081C189.671 57.5602 188.178 55.336 186.296 53.4625C184.414 51.5891 182.18 50.1031 179.721 49.0895C177.262 48.0759 174.627 47.5546 171.965 47.5553Z" fill="#6C63FF"/>
<path opacity="0.5" d="M491.577 7.81124C494.796 7.81353 497.914 8.92676 500.401 10.9613C502.888 12.9958 504.59 15.8258 505.216 18.9692C505.843 22.1126 505.355 25.3749 503.836 28.2005C502.318 31.0261 499.862 33.2401 496.888 34.4654C493.913 35.6908 490.604 35.8516 487.524 34.9206C484.444 33.9896 481.783 32.0243 479.995 29.3595C478.207 26.6946 477.402 23.4951 477.718 20.3059C478.034 17.1168 479.45 14.1352 481.727 11.8691C483.018 10.5782 484.553 9.55483 486.243 8.85831C487.934 8.16179 489.747 7.8059 491.577 7.81124ZM491.577 5.65369C488.392 5.65369 485.28 6.59378 482.632 8.35505C479.985 10.1163 477.921 12.6197 476.703 15.5485C475.485 18.4773 475.166 21.7 475.788 24.809C476.409 27.9181 477.943 30.7738 480.195 33.0149C482.447 35.2561 485.316 36.7821 488.439 37.3999C491.562 38.0177 494.799 37.6996 497.741 36.4857C500.683 35.2719 503.196 33.2169 504.965 30.5806C506.733 27.9443 507.676 24.8452 507.675 21.6752C507.676 19.5706 507.26 17.4865 506.451 15.542C505.642 13.5975 504.456 11.8308 502.961 10.3429C501.466 8.85494 499.691 7.67494 497.738 6.87034C495.784 6.06574 493.691 5.65231 491.577 5.65369Z" fill="#6C63FF"/>
<path opacity="0.8" d="M387.291 50.2693C391.348 50.2641 395.282 51.6599 398.421 54.2188C401.56 56.7777 403.711 60.3412 404.506 64.302C405.302 68.2627 404.693 72.3755 402.783 75.9393C400.873 79.5031 397.781 82.2972 394.034 83.8454C390.287 85.3936 386.116 85.6 382.233 84.4295C378.35 83.259 374.994 80.784 372.739 77.4264C370.484 74.0688 369.468 70.0365 369.865 66.0167C370.262 61.9969 372.046 58.2386 374.915 55.3823C376.541 53.7564 378.473 52.4674 380.602 51.5898C382.731 50.7121 385.013 50.2633 387.317 50.2693H387.291ZM387.317 47.5553C383.31 47.5553 379.392 48.7385 376.059 50.9552C372.727 53.172 370.129 56.3227 368.596 60.009C367.062 63.6953 366.661 67.7516 367.442 71.6649C368.224 75.5782 370.154 79.1729 372.988 81.9942C375.822 84.8156 379.433 86.737 383.364 87.5154C387.295 88.2938 391.369 87.8943 395.072 86.3674C398.775 84.8405 401.94 82.2547 404.167 78.9372C406.393 75.6196 407.582 71.7192 407.582 67.7292C407.583 65.0775 407.058 62.4517 406.038 60.0021C405.018 57.5525 403.523 55.3271 401.639 53.4533C399.754 51.5795 397.517 50.0941 395.055 49.082C392.593 48.07 389.955 47.5512 387.291 47.5553H387.317Z" fill="#6C63FF"/>
<path d="M279.119 82.2807C284.479 82.2843 289.672 84.1377 293.813 87.5251C297.954 90.9126 300.788 95.6245 301.831 100.858C302.874 106.092 302.062 111.524 299.533 116.229C297.005 120.934 292.916 124.62 287.963 126.661C283.011 128.701 277.501 128.969 272.373 127.419C267.244 125.868 262.814 122.596 259.837 118.159C256.86 113.722 255.52 108.395 256.046 103.084C256.571 97.7743 258.93 92.8099 262.72 89.0368C264.869 86.8867 267.425 85.1825 270.24 84.0227C273.055 82.863 276.073 82.2709 279.119 82.2807ZM279.119 78.6901C273.82 78.6901 268.64 80.2544 264.234 83.1852C259.828 86.1161 256.394 90.2818 254.366 95.1556C252.339 100.029 251.808 105.392 252.842 110.566C253.876 115.74 256.427 120.493 260.174 124.223C263.921 127.954 268.695 130.494 273.892 131.523C279.09 132.552 284.477 132.024 289.372 130.005C294.268 127.986 298.453 124.568 301.396 120.181C304.34 115.795 305.912 110.638 305.912 105.363C305.913 101.86 305.22 98.3912 303.874 95.1548C302.528 91.9184 300.554 88.9777 298.066 86.5008C295.578 84.0239 292.624 82.0592 289.373 80.719C286.122 79.3788 282.638 78.6894 279.119 78.6901Z" fill="#6C63FF"/>
<path d="M248.214 100.528H95.7167V252.344H248.214V100.528Z" fill="#F3F5F7"/>
<path d="M463.54 100.528H311.043V252.344H463.54V100.528Z" fill="#F3F5F7"/>
<path opacity="0.1" d="M64.5371 89.0055H13.6731V94.633H64.5371V89.0055Z" fill="black"/>
<path opacity="0.1" d="M498.648 89.0055H447.784V94.633H498.648V89.0055Z" fill="black"/>
<path d="M369.742 324.635C369.742 324.635 382.957 301.332 402.857 294.618C411.222 291.855 418.46 286.465 423.486 279.258C425.843 275.812 427.88 272.159 429.571 268.344" stroke="#535461" stroke-width="2" stroke-miterlimit="10"/>
<path d="M442.084 264.056C439.816 266.245 429.254 268.512 429.254 268.512C429.254 268.512 431.849 258.071 434.116 255.877C435.205 254.825 436.67 254.247 438.187 254.27C439.705 254.293 441.151 254.916 442.208 256C443.264 257.085 443.845 258.543 443.821 260.053C443.798 261.564 443.173 263.004 442.084 264.056Z" fill="#6C63FF"/>
<path d="M436.109 282.943C433.009 283.558 422.927 279.746 422.927 279.746C422.927 279.746 430.799 272.397 433.9 271.772C435.372 271.516 436.887 271.844 438.12 272.685C439.353 273.527 440.206 274.815 440.497 276.275C440.788 277.735 440.493 279.25 439.676 280.496C438.859 281.742 437.584 282.621 436.125 282.943H436.109Z" fill="#6C63FF"/>
<path d="M414.358 303.39C411.373 302.34 404.587 293.994 404.587 293.994C404.587 293.994 415.133 291.595 418.102 292.623C418.812 292.868 419.467 293.25 420.029 293.746C420.591 294.243 421.049 294.845 421.377 295.518C421.705 296.191 421.897 296.922 421.942 297.668C421.987 298.415 421.883 299.163 421.637 299.87C421.391 300.577 421.008 301.229 420.509 301.789C420.01 302.348 419.406 302.804 418.73 303.131C418.054 303.458 417.32 303.649 416.57 303.694C415.82 303.738 415.068 303.635 414.358 303.39Z" fill="#6C63FF"/>
<path d="M394.426 315.165C391.304 314.64 383.194 307.548 383.194 307.548C383.194 307.548 393.171 303.416 396.287 303.926C397.034 304.041 397.75 304.303 398.395 304.695C399.04 305.088 399.6 305.604 400.043 306.214C400.486 306.823 400.804 307.514 400.977 308.246C401.151 308.979 401.177 309.738 401.054 310.48C400.931 311.223 400.662 311.934 400.261 312.572C399.861 313.21 399.337 313.763 398.721 314.198C398.104 314.634 397.408 314.943 396.67 315.109C395.933 315.275 395.17 315.294 394.426 315.165Z" fill="#6C63FF"/>
<path d="M414.105 271.589C414.105 274.738 419.821 283.857 419.821 283.857C419.821 283.857 425.537 274.738 425.537 271.594C425.537 270.083 424.934 268.635 423.861 267.566C422.788 266.498 421.333 265.898 419.815 265.898C418.298 265.898 416.843 266.498 415.77 267.566C414.697 268.635 414.094 270.083 414.094 271.594L414.105 271.589Z" fill="#6C63FF"/>
<path d="M390.94 285.668C391.884 288.671 400.084 295.673 400.084 295.673C400.084 295.673 402.805 285.269 401.861 282.266C401.636 281.552 401.273 280.889 400.791 280.315C400.31 279.741 399.719 279.267 399.053 278.921C398.388 278.574 397.66 278.361 396.911 278.294C396.163 278.227 395.409 278.308 394.692 278.531C393.975 278.755 393.309 279.116 392.732 279.596C392.156 280.075 391.68 280.663 391.331 281.326C390.983 281.989 390.769 282.713 390.702 283.458C390.635 284.203 390.716 284.954 390.94 285.668Z" fill="#6C63FF"/>
<path d="M370.312 302.409C370.734 305.527 377.62 313.805 377.62 313.805C377.62 313.805 382.071 304.01 381.654 300.891C381.452 299.394 380.661 298.038 379.454 297.121C378.248 296.205 376.725 295.803 375.221 296.004C373.717 296.205 372.355 296.993 371.434 298.194C370.513 299.395 370.11 300.911 370.312 302.409Z" fill="#6C63FF"/>
<path opacity="0.25" d="M442.084 264.056C439.816 266.245 429.254 268.512 429.254 268.512C429.254 268.512 431.849 258.071 434.116 255.877C435.205 254.825 436.67 254.247 438.187 254.27C439.705 254.293 441.151 254.916 442.208 256C443.264 257.085 443.845 258.543 443.821 260.053C443.798 261.564 443.173 263.004 442.084 264.056Z" fill="black"/>
<path opacity="0.25" d="M436.109 282.943C433.009 283.558 422.927 279.746 422.927 279.746C422.927 279.746 430.799 272.397 433.9 271.772C435.372 271.516 436.887 271.844 438.12 272.685C439.353 273.527 440.206 274.815 440.497 276.275C440.788 277.735 440.493 279.25 439.676 280.496C438.859 281.742 437.584 282.621 436.125 282.943H436.109Z" fill="black"/>
<path opacity="0.25" d="M414.358 303.39C411.373 302.34 404.587 293.994 404.587 293.994C404.587 293.994 415.133 291.595 418.102 292.623C418.812 292.868 419.467 293.25 420.029 293.746C420.591 294.243 421.049 294.845 421.377 295.518C421.705 296.191 421.897 296.922 421.942 297.668C421.987 298.415 421.883 299.163 421.637 299.87C421.391 300.577 421.008 301.229 420.509 301.789C420.01 302.348 419.406 302.804 418.73 303.131C418.054 303.458 417.32 303.649 416.57 303.694C415.82 303.738 415.068 303.635 414.358 303.39Z" fill="black"/>
<path opacity="0.25" d="M394.426 315.165C391.304 314.64 383.194 307.548 383.194 307.548C383.194 307.548 393.171 303.416 396.287 303.926C397.034 304.041 397.75 304.303 398.395 304.695C399.04 305.088 399.6 305.604 400.043 306.214C400.486 306.823 400.804 307.514 400.977 308.246C401.151 308.979 401.177 309.738 401.054 310.48C400.931 311.223 400.662 311.934 400.261 312.572C399.861 313.21 399.337 313.763 398.721 314.198C398.104 314.634 397.408 314.943 396.67 315.109C395.933 315.275 395.17 315.294 394.426 315.165Z" fill="black"/>
<path opacity="0.25" d="M414.105 271.589C414.105 274.738 419.821 283.857 419.821 283.857C419.821 283.857 425.537 274.738 425.537 271.594C425.537 270.083 424.934 268.635 423.861 267.566C422.788 266.498 421.333 265.898 419.815 265.898C418.298 265.898 416.843 266.498 415.77 267.566C414.697 268.635 414.094 270.083 414.094 271.594L414.105 271.589Z" fill="black"/>
<path opacity="0.25" d="M390.94 285.668C391.884 288.671 400.084 295.673 400.084 295.673C400.084 295.673 402.805 285.269 401.861 282.266C401.636 281.552 401.273 280.889 400.791 280.315C400.31 279.741 399.719 279.267 399.053 278.921C398.388 278.574 397.66 278.361 396.911 278.294C396.163 278.227 395.409 278.308 394.692 278.531C393.975 278.755 393.309 279.116 392.732 279.596C392.156 280.075 391.68 280.663 391.331 281.326C390.983 281.989 390.769 282.713 390.702 283.458C390.635 284.203 390.716 284.954 390.94 285.668Z" fill="black"/>
<path opacity="0.25" d="M370.312 302.409C370.734 305.527 377.62 313.805 377.62 313.805C377.62 313.805 382.071 304.01 381.654 300.891C381.452 299.394 380.661 298.038 379.454 297.121C378.248 296.205 376.725 295.803 375.221 296.004C373.717 296.205 372.355 296.993 371.434 298.194C370.513 299.395 370.11 300.911 370.312 302.409Z" fill="black"/>
<path d="M370.502 324.173C370.502 324.173 373.101 297.542 388.557 283.374C395.079 277.468 399.503 269.616 401.165 260.995C401.918 256.898 402.294 252.74 402.288 248.575" stroke="#535461" stroke-width="2" stroke-miterlimit="10"/>
<path d="M411.98 239.603C410.798 242.522 402.066 248.853 402.066 248.853C402.066 248.853 400.184 238.265 401.365 235.346C401.646 234.652 402.061 234.02 402.587 233.486C403.113 232.952 403.74 232.526 404.431 232.233C405.123 231.94 405.865 231.786 406.617 231.779C407.368 231.771 408.114 231.911 408.811 232.191C409.508 232.471 410.142 232.884 410.679 233.408C411.215 233.932 411.643 234.555 411.937 235.244C412.231 235.932 412.387 236.671 412.394 237.419C412.401 238.167 412.26 238.909 411.98 239.603Z" fill="#6C63FF"/>
<path d="M414.205 259.284C411.621 261.095 400.838 261.688 400.838 261.688C400.838 261.688 405.056 251.777 407.624 249.971C408.866 249.156 410.378 248.855 411.839 249.131C413.3 249.407 414.596 250.238 415.452 251.45C416.308 252.661 416.656 254.156 416.424 255.618C416.191 257.081 415.395 258.395 414.205 259.284Z" fill="#6C63FF"/>
<path d="M402.641 286.749C399.477 287.012 389.885 282.103 389.885 282.103C389.885 282.103 398.533 275.662 401.681 275.4C402.437 275.323 403.201 275.396 403.928 275.616C404.656 275.837 405.331 276.199 405.916 276.682C406.501 277.165 406.984 277.759 407.336 278.43C407.687 279.1 407.901 279.834 407.965 280.588C408.029 281.342 407.941 282.101 407.707 282.821C407.473 283.541 407.097 284.207 406.601 284.78C406.106 285.354 405.5 285.823 404.82 286.161C404.14 286.5 403.399 286.699 402.641 286.749Z" fill="#6C63FF"/>
<path d="M389.195 305.569C386.131 306.356 375.828 303.133 375.828 303.133C375.828 303.133 383.263 295.332 386.321 294.539C387.778 294.194 389.313 294.431 390.596 295.199C391.879 295.967 392.809 297.206 393.185 298.649C393.561 300.092 393.354 301.625 392.608 302.917C391.862 304.21 390.637 305.16 389.195 305.563V305.569Z" fill="#6C63FF"/>
<path d="M389.464 257.782C390.745 260.659 399.683 266.707 399.683 266.707C399.683 266.707 401.207 256.061 399.931 253.184C399.316 251.802 398.175 250.72 396.759 250.175C395.343 249.631 393.768 249.669 392.38 250.281C390.992 250.893 389.905 252.028 389.358 253.438C388.811 254.848 388.849 256.416 389.464 257.798V257.782Z" fill="#6C63FF"/>
<path d="M374.014 279.988C376.123 282.35 386.447 285.447 386.447 285.447C386.447 285.447 384.697 274.833 382.614 272.471C381.613 271.335 380.199 270.642 378.685 270.544C377.17 270.446 375.679 270.951 374.538 271.948C373.398 272.945 372.702 274.352 372.603 275.86C372.505 277.368 373.012 278.852 374.014 279.988Z" fill="#6C63FF"/>
<path d="M361.975 303.621C363.626 306.304 373.296 311.096 373.296 311.096C373.296 311.096 373.381 300.34 371.714 297.658C370.92 296.37 369.645 295.45 368.169 295.099C366.693 294.748 365.137 294.995 363.844 295.786C362.552 296.577 361.627 297.847 361.275 299.316C360.922 300.785 361.17 302.334 361.965 303.621H361.975Z" fill="#6C63FF"/>
<path opacity="0.1" d="M166.265 132.933H115.401V138.561H166.265V132.933Z" fill="black"/>
<path opacity="0.1" d="M239.498 182.399H209.13V188.027H239.498V182.399Z" fill="black"/>
<path opacity="0.1" d="M254.099 220.164H209.13V225.792H254.099V220.164Z" fill="black"/>
<path opacity="0.1" d="M166.265 152.766H115.401V158.393H166.265V152.766Z" fill="black"/>
<path opacity="0.1" d="M395.153 132.933H344.289V138.561H395.153V132.933Z" fill="black"/>
<path opacity="0.1" d="M395.153 152.766H344.289V158.393H395.153V152.766Z" fill="black"/>
<path d="M271.911 113.206L273.335 111.347C274.705 112.683 276.543 113.436 278.46 113.447C280.865 113.447 282.647 112.276 282.647 110.381C282.647 108.324 280.939 106.969 276.203 106.969V104.833C280.422 104.833 282.004 103.452 282.004 101.63C282.004 99.9821 280.585 98.9532 278.481 98.9532C276.842 99.0013 275.276 99.6392 274.073 100.749L272.56 98.9532C274.222 97.4734 276.367 96.6435 278.597 96.6172C282.241 96.6172 284.925 98.36 284.925 101.415C284.925 103.568 283.343 104.974 281.065 105.751V105.867C283.507 106.392 285.553 108.003 285.553 110.518C285.553 113.836 282.389 115.825 278.655 115.825C275.481 115.82 273.303 114.618 271.911 113.206Z" fill="#6C63FF"/>
<g opacity="0.8">
<path opacity="0.8" d="M388.973 64.8315C388.973 63.8236 389.063 62.5374 389.116 61.5295H388.984C388.404 62.422 387.745 63.3091 387.154 64.1963L382.936 69.5823H394.136V71.7503H380.046V69.913L388.456 58.889H391.552V76.4171H388.973V64.8315Z" fill="#6C63FF"/>
</g>
<g opacity="0.5">
<path opacity="0.5" d="M486.098 27.2344L487.052 25.9378C487.975 26.8382 489.214 27.3448 490.506 27.3499C492.204 27.3499 493.538 26.342 493.538 24.6884C493.538 23.0348 492.362 22.1424 490.617 22.1424C489.733 22.1351 488.867 22.389 488.128 22.8721L487.137 22.2369L487.537 16.0372H494.92V17.7433H489.278L488.966 21.1398C489.653 20.8292 490.4 20.6716 491.155 20.6778C493.575 20.6778 495.547 21.9167 495.547 24.6569C495.547 27.3972 493.238 28.9983 490.743 28.9983C489.891 29.0232 489.041 28.8802 488.244 28.5775C487.447 28.2748 486.717 27.8184 486.098 27.2344Z" fill="#6C63FF"/>
</g>
<path opacity="0.1" d="M371.567 148.729H183.06V336.394H371.567V148.729Z" fill="#6C63FF"/>
<path d="M377.895 139.805H189.388V327.47H377.895V139.805Z" fill="white"/>
<path opacity="0.5" d="M358.147 160.593H209.13V166.22H358.147V160.593Z" fill="#6C63FF"/>
<path opacity="0.1" d="M304.019 201.282H209.13V206.909H304.019V201.282Z" fill="black"/>
<path opacity="0.1" d="M301.198 239.052H209.13V244.68H301.198V239.052Z" fill="black"/>
<path opacity="0.1" d="M334.634 257.935H209.13V263.562H334.634V257.935Z" fill="black"/>
<path opacity="0.5" d="M330.896 201.781L330.247 201.114C330.218 201.087 330.181 201.072 330.142 201.072C330.104 201.072 330.068 201.087 330.041 201.114L325.544 205.628L323.904 203.996C323.874 203.97 323.837 203.955 323.798 203.954C323.761 203.955 323.725 203.97 323.698 203.996L323.039 204.652C323.025 204.666 323.014 204.682 323.006 204.7C322.998 204.718 322.995 204.737 322.995 204.757C322.995 204.777 322.998 204.796 323.006 204.814C323.014 204.832 323.025 204.848 323.039 204.862L325.106 206.915C325.218 207.036 325.373 207.111 325.538 207.125C325.701 207.111 325.853 207.038 325.965 206.92L330.896 201.991C330.92 201.961 330.933 201.924 330.933 201.886C330.933 201.847 330.92 201.81 330.896 201.781Z" fill="#3ACC6C"/>
<path opacity="0.5" d="M326.967 197.476C328.505 197.475 329.995 198.005 331.184 198.975C332.373 199.945 333.187 201.296 333.488 202.797C333.788 204.298 333.557 205.856 332.833 207.206C332.109 208.556 330.937 209.614 329.517 210.2C328.096 210.787 326.516 210.864 325.045 210.42C323.574 209.977 322.302 209.038 321.448 207.766C320.594 206.494 320.209 204.966 320.36 203.442C320.511 201.919 321.187 200.495 322.274 199.413C322.889 198.797 323.62 198.309 324.426 197.976C325.231 197.644 326.095 197.474 326.967 197.476ZM326.967 196.452C325.449 196.451 323.965 196.899 322.703 197.737C321.44 198.576 320.456 199.769 319.875 201.165C319.293 202.561 319.141 204.097 319.437 205.579C319.733 207.061 320.463 208.423 321.537 209.491C322.61 210.56 323.978 211.287 325.466 211.582C326.955 211.877 328.498 211.725 329.9 211.146C331.303 210.567 332.501 209.587 333.343 208.331C334.186 207.074 334.635 205.596 334.634 204.085C334.631 202.063 333.822 200.124 332.385 198.695C330.947 197.266 328.999 196.463 326.967 196.463V196.452Z" fill="#3ACC6C"/>
<path opacity="0.5" d="M330.896 239.546L330.247 238.884C330.234 238.87 330.217 238.859 330.199 238.852C330.181 238.845 330.161 238.841 330.142 238.842C330.123 238.841 330.104 238.845 330.087 238.852C330.069 238.859 330.054 238.87 330.041 238.884L325.544 243.393L323.904 241.766C323.89 241.752 323.874 241.74 323.856 241.732C323.838 241.724 323.818 241.719 323.798 241.719C323.779 241.719 323.76 241.724 323.743 241.732C323.726 241.74 323.71 241.752 323.698 241.766L323.039 242.417C323.025 242.431 323.014 242.447 323.006 242.465C322.998 242.483 322.995 242.503 322.995 242.522C322.995 242.542 322.998 242.561 323.006 242.579C323.014 242.597 323.025 242.613 323.039 242.627L325.106 244.685C325.218 244.807 325.373 244.882 325.538 244.895C325.7 244.879 325.852 244.806 325.965 244.69L330.896 239.756C330.92 239.726 330.933 239.689 330.933 239.651C330.933 239.612 330.92 239.575 330.896 239.546Z" fill="#3ACC6C"/>
<path opacity="0.5" d="M326.967 235.273C328.505 235.271 329.995 235.801 331.184 236.771C332.373 237.742 333.187 239.092 333.488 240.593C333.788 242.094 333.557 243.652 332.833 245.002C332.109 246.352 330.937 247.411 329.517 247.997C328.096 248.583 326.516 248.661 325.045 248.217C323.574 247.773 322.302 246.835 321.448 245.562C320.594 244.29 320.209 242.762 320.36 241.239C320.511 239.716 321.187 238.292 322.274 237.21C322.889 236.594 323.62 236.105 324.426 235.773C325.231 235.44 326.095 235.27 326.967 235.273ZM326.967 234.223C325.45 234.222 323.966 234.669 322.703 235.507C321.441 236.346 320.457 237.539 319.875 238.934C319.294 240.33 319.141 241.866 319.436 243.348C319.732 244.83 320.462 246.191 321.535 247.26C322.608 248.328 323.975 249.056 325.463 249.352C326.952 249.647 328.495 249.496 329.897 248.918C331.299 248.34 332.498 247.361 333.341 246.105C334.184 244.849 334.634 243.372 334.634 241.861C334.635 240.858 334.437 239.865 334.052 238.938C333.667 238.011 333.102 237.169 332.39 236.46C331.678 235.751 330.833 235.188 329.902 234.804C328.972 234.42 327.974 234.223 326.967 234.223Z" fill="#3ACC6C"/>
<path opacity="0.1" d="M270.25 417C291.046 417 307.905 414.184 307.905 410.711C307.905 407.238 291.046 404.422 270.25 404.422C249.454 404.422 232.595 407.238 232.595 410.711C232.595 414.184 249.454 417 270.25 417Z" fill="#6C63FF"/>
<path d="M69.0298 363.985C69.0298 363.985 70.9914 366.542 68.1228 370.405C65.2543 374.269 62.8814 377.524 63.8411 379.933C63.8411 379.933 68.1703 372.762 71.6979 372.663C75.2256 372.563 72.9055 368.3 69.0298 363.985Z" fill="#6C63FF"/>
<path opacity="0.1" d="M69.0298 363.985C69.2006 364.233 69.3355 364.503 69.4305 364.788C72.8685 368.815 74.7036 372.568 71.3974 372.663C68.3179 372.752 64.6215 378.232 63.7356 379.618C63.7636 379.725 63.7988 379.831 63.8411 379.933C63.8411 379.933 68.1702 372.762 71.6979 372.663C75.2256 372.563 72.9055 368.3 69.0298 363.985Z" fill="black"/>
<path d="M72.6787 367.245C72.6787 368.148 72.5785 368.878 72.452 368.878C72.3254 368.878 72.2252 368.148 72.2252 367.245C72.2252 366.342 72.3518 366.767 72.4783 366.767C72.6049 366.767 72.6787 366.347 72.6787 367.245Z" fill="#FFD037"/>
<path d="M73.9337 368.321C73.1375 368.752 72.4467 369.014 72.3887 368.904C72.3307 368.794 72.916 368.379 73.7175 367.922C74.5191 367.466 74.1974 367.807 74.2449 367.922C74.2923 368.038 74.7247 367.891 73.9337 368.321Z" fill="#FFD037"/>
<path d="M58.6523 363.985C58.6523 363.985 56.6855 366.542 59.5593 370.405C62.4331 374.269 64.7954 377.524 63.841 379.933C63.841 379.933 59.5066 372.762 55.9842 372.663C52.4618 372.563 54.7714 368.3 58.6523 363.985Z" fill="#6C63FF"/>
<path opacity="0.1" d="M58.6523 363.985C58.4815 364.233 58.3466 364.503 58.2516 364.788C54.8083 368.815 52.9785 372.568 56.2847 372.663C59.3642 372.752 63.0606 378.232 63.9465 379.618C63.9148 379.723 63.8832 379.828 63.841 379.933C63.841 379.933 59.5066 372.762 55.9842 372.663C52.4618 372.563 54.7714 368.3 58.6523 363.985Z" fill="black"/>
<path d="M54.9981 367.245C54.9981 368.148 55.0983 368.878 55.2248 368.878C55.3514 368.878 55.4516 368.148 55.4516 367.245C55.4516 366.342 55.325 366.767 55.1985 366.767C55.0719 366.767 54.9981 366.347 54.9981 367.245Z" fill="#FFD037"/>
<path d="M53.7484 368.321C54.5394 368.752 55.2302 369.014 55.2934 368.904C55.3567 368.794 54.7661 368.379 53.9646 367.922C53.1631 367.466 53.4848 367.807 53.4373 367.922C53.3899 368.038 52.9522 367.891 53.7484 368.321Z" fill="#FFD037"/>
<path opacity="0.1" d="M63.841 399.498C75.1842 399.498 84.3796 398.093 84.3796 396.359C84.3796 394.625 75.1842 393.22 63.841 393.22C52.4979 393.22 43.3024 394.625 43.3024 396.359C43.3024 398.093 52.4979 399.498 63.841 399.498Z" fill="#6C63FF"/>
<path d="M74.4135 376.484L74.3133 377.287L74.1762 378.411L74.1182 378.883L73.9811 380.012L73.9231 380.484L73.7808 381.608L72.1988 394.438C72.0617 395.582 70.1793 396.474 67.9118 396.474H59.7544C57.487 396.474 55.6098 395.582 55.4727 394.438L53.8907 381.608L53.7536 380.484L53.6956 380.012L53.5585 378.883L53.5005 378.411L53.3634 377.287L53.258 376.484C53.1789 375.839 54.1966 375.293 55.4779 375.293H72.183C73.4749 375.293 74.4926 375.839 74.4135 376.484Z" fill="#65617D"/>
<path d="M74.3134 377.282L74.1763 378.411H53.5058L53.3635 377.282H74.3134Z" fill="#9D9CB5"/>
<path d="M74.1183 378.883L73.9812 380.012H53.7009L53.5638 378.883H74.1183Z" fill="#9D9CB5"/>
<path d="M73.9231 380.479L73.7808 381.608H53.896L53.7589 380.479H73.9231Z" fill="#9D9CB5"/>
<path opacity="0.1" d="M311.554 242.417C311.201 241.698 308.39 232.443 308.39 232.443L302.975 218.758C302.975 218.758 299.69 200.746 294.786 205.24C289.882 209.734 297.422 220.516 297.422 220.516C297.422 220.516 300.517 228.39 300.359 229.965C300.201 231.54 302.084 237.315 302.084 237.315L301.472 240.632C300.676 240.58 300.159 240.58 300.159 240.58C300.159 240.58 299.674 241.273 299.21 241.32C299.131 241.331 299.051 241.32 298.978 241.288C298.45 241.052 296.705 241.099 295.814 241.099C294.986 240.988 294.185 240.732 293.446 240.344C293.14 239.735 291.411 239.372 289.876 239.168C288.711 236.28 287.071 233.472 286.844 230.459C286.733 229.638 286.896 228.805 287.308 228.086C287.411 227.932 287.527 227.788 287.656 227.655C288.084 227.225 288.606 226.847 289.08 226.448C289.317 226.249 289.534 226.044 289.739 225.834C293.763 221.949 293.125 215.933 289.476 211.77C285.257 206.957 266.232 196.599 260.474 205.471C259.672 206.71 259.646 208.143 259.419 209.518C258.845 212.882 257.26 215.994 254.874 218.443C252.965 220.464 250.46 222.327 249.363 224.616L249.327 224.532C249.065 225.028 248.873 225.558 248.757 226.107C248.203 228.894 250.091 231.577 251.082 234.291C251.42 235.213 251.664 236.166 251.81 237.136L251.873 236.538C252.116 237.924 252.199 239.333 252.121 240.737C245.214 242.144 245.208 253.997 245.208 253.997C245.208 253.997 244.359 258.722 244.502 260.407C244.644 262.092 244.644 265.777 244.644 266.675C244.644 267.573 243.79 273.085 243.695 273.746C243.574 274.476 242.276 277.972 245.409 278.759C245.625 278.817 245.857 278.864 246.094 278.906C246.226 281.736 246.474 287.673 246.258 288.985C246.258 288.985 247.397 296.954 248.34 298.96C248.947 300.145 249.652 301.278 250.45 302.345C250.383 302.829 250.22 303.295 249.97 303.716C249.49 304.414 249.738 304.986 250.545 305.233C250.52 305.474 250.488 305.747 250.45 306.052C250.107 309.128 249.59 315.233 250.45 318.33C251.657 322.572 251.726 323.984 251.726 323.984C251.725 324.674 251.895 325.354 252.221 325.963C252.749 326.672 253.645 333.244 253.645 334.304C253.645 335.365 256.06 344.908 255.348 347.171C254.637 349.434 255.206 352.615 255.206 352.615C255.206 352.615 254.779 358.2 254.283 359.402C253.788 360.605 253.571 379.975 254.352 384.994C255.132 390.012 255.633 394.186 255.633 394.186C255.633 394.186 255.106 398.779 255.559 399.435C256.013 400.091 256.767 403.892 256.197 404.102C255.628 404.312 255.348 405.871 255.348 405.871C255.648 406.327 255.972 406.767 256.319 407.189C256.098 407.112 255.884 407.021 255.675 406.916C255.902 407.236 256.24 407.677 256.651 408.16L256.266 413.241C256.249 413.44 256.304 413.639 256.419 413.802C256.535 413.965 256.705 414.083 256.899 414.134C258.145 414.474 259.461 414.469 260.705 414.118C261.948 413.767 263.072 413.085 263.954 412.144C267.503 408.538 268.7 409.036 269.354 406.842C269.417 406.606 269.48 406.38 269.528 406.16C269.625 405.737 269.601 405.295 269.456 404.886C269.312 404.476 269.054 404.116 268.712 403.847C268.371 403.577 267.959 403.41 267.526 403.364C267.092 403.318 266.655 403.396 266.264 403.587C266.49 402.013 266.67 400.286 266.496 399.293C266.142 397.246 266.211 391.871 266.211 391.871L265.715 366.148C265.715 366.148 266.638 361.061 267.703 359.082C268.768 357.103 268.626 350.158 268.626 350.158L269.833 327.391L271.036 316.367C271.036 316.367 272.169 312.55 273.588 316.792C273.588 316.792 272.807 325.344 273.166 327.396C273.525 329.449 274.015 339.412 273.662 341.607C273.308 343.801 271.742 355.817 272.739 358.856C273.736 361.896 274.795 365.571 274.585 366.773C274.374 367.975 273.662 394.07 273.662 394.07C273.662 394.07 275.576 399.089 274.157 400.716C272.739 402.343 274.089 408.848 274.089 408.848C274.089 408.848 274.258 408.968 274.553 409.141L274.511 409.666L274.068 415.514C274.052 415.713 274.107 415.911 274.223 416.074C274.338 416.237 274.507 416.355 274.701 416.407C275.947 416.746 277.263 416.74 278.506 416.389C279.75 416.039 280.873 415.357 281.756 414.417C285.305 410.811 286.502 411.304 287.156 409.115C287.219 408.879 287.282 408.648 287.335 408.428C287.442 407.959 287.399 407.47 287.213 407.027C287.026 406.584 286.705 406.211 286.294 405.959C285.884 405.707 285.405 405.59 284.923 405.623C284.442 405.656 283.984 405.838 283.612 406.144C283.588 406.169 283.562 406.192 283.533 406.212C283.443 406.291 283.348 406.359 283.253 406.427L283.116 406.517C283.47 404.9 283.986 402.144 283.744 400.842C283.391 398.931 284.097 393.136 284.097 393.136C284.097 393.136 286.159 386.206 286.206 383.45C286.254 380.694 286.776 361.402 286.776 361.402C286.776 361.402 286.707 352.426 286.992 350.237C287.277 348.048 289.544 329.097 291.817 323.464C293.562 319.128 294.343 308.078 293.879 302.466C293.852 302.183 293.826 301.941 293.8 301.668C296.578 299.589 296.874 296.167 296.874 296.167C296.874 296.167 294.316 291.264 291.854 289.19C289.391 287.117 288.822 283.536 288.917 282.025C288.96 281.102 288.658 280.197 288.068 279.484C288.068 279.484 286.929 275.809 286.169 275.431C286.107 275.4 286.052 275.358 286.006 275.305C285.479 274.749 285.885 273.169 285.885 273.169V273.121C285.969 272.754 286.523 270.381 286.343 269.772C286.164 269.163 286.438 266.003 286.438 266.003C286.438 266.003 288.242 260.633 287.957 256.391C287.672 252.15 291.648 252.522 291.648 252.522L303.929 252.396H305.327C305.916 251.896 306.447 251.33 306.908 250.711C307.382 250.8 307.87 250.787 308.338 250.673C308.806 250.559 309.245 250.346 309.624 250.05C312.229 247.677 311.907 243.147 311.554 242.417ZM254.441 279.164L254.531 277.011L255.011 277.421C255.157 277.985 255.157 278.578 255.011 279.143C254.937 279.408 254.803 279.654 254.621 279.861C254.438 280.068 254.211 280.232 253.956 280.34C253.895 280.369 253.837 280.405 253.782 280.445L253.661 279.216C254.162 279.185 254.441 279.158 254.441 279.158V279.164Z" fill="black"/>
<path d="M300.512 246.59C300.512 246.59 307.504 251.068 310.151 248.69C312.799 246.312 312.472 241.724 312.113 241C311.754 240.275 308.907 230.957 308.907 230.957L303.407 217.162C303.407 217.162 300.064 199.004 295.076 203.513C290.087 208.022 297.765 218.91 297.765 218.91C297.765 218.91 300.929 226.852 300.75 228.443C300.57 230.033 302.5 235.86 302.5 235.86L300.512 246.59Z" fill="url(#paint0_linear)"/>
<path d="M287.472 408.365C287.419 408.59 287.361 408.821 287.287 409.057C286.639 411.268 285.41 410.769 281.803 414.401C280.903 415.351 279.76 416.04 278.497 416.393C277.233 416.746 275.898 416.751 274.632 416.407C274.436 416.356 274.265 416.238 274.147 416.074C274.029 415.91 273.973 415.71 273.989 415.509L274.442 409.614L274.658 406.774C274.658 406.774 280.401 408.38 283.327 406.349C283.422 406.281 283.517 406.212 283.607 406.133L283.691 406.065C284.068 405.758 284.531 405.575 285.016 405.542C285.502 405.509 285.986 405.626 286.401 405.879C286.817 406.132 287.143 406.506 287.335 406.952C287.526 407.397 287.574 407.891 287.472 408.365Z" fill="url(#paint1_linear)"/>
<path d="M269.454 406.139C269.406 406.364 269.343 406.595 269.275 406.832C268.626 409.042 267.397 408.543 263.791 412.176C262.889 413.124 261.746 413.812 260.484 414.166C259.221 414.52 257.885 414.527 256.619 414.186C256.422 414.136 256.249 414.018 256.131 413.852C256.013 413.687 255.958 413.485 255.976 413.283L256.424 407.388L256.646 404.548C256.646 404.548 262.388 406.154 265.309 404.123C265.409 404.055 265.499 403.986 265.594 403.908L265.678 403.839C266.054 403.531 266.517 403.347 267.003 403.313C267.489 403.279 267.973 403.397 268.389 403.65C268.804 403.903 269.13 404.279 269.321 404.725C269.512 405.171 269.558 405.665 269.454 406.139Z" fill="url(#paint2_linear)"/>
<g opacity="0.1">
<path opacity="0.1" d="M263.506 407.026L263.743 410.086C260.442 413.341 256.519 408.512 255.359 406.905C258.38 408.449 263.506 407.026 263.506 407.026Z" fill="url(#paint3_linear)"/>
</g>
<g opacity="0.1">
<path opacity="0.1" d="M282.884 408.27L283.322 407.987C280.306 412.512 275.834 410.422 274.442 409.614L274.658 406.774C274.658 406.774 280.401 408.38 283.327 406.349C283.095 407.456 282.884 408.27 282.884 408.27Z" fill="url(#paint4_linear)"/>
</g>
<path d="M292.054 322.672C289.745 328.372 287.435 347.475 287.145 349.685C286.855 351.896 286.929 360.946 286.929 360.946L286.328 383.183C286.259 385.965 284.166 392.947 284.166 392.947C284.166 392.947 283.443 398.795 283.802 400.716C284.16 402.637 282.863 407.703 282.863 407.703L283.301 407.42C279.689 412.832 273.989 408.769 273.989 408.769C273.989 408.769 272.618 402.212 274.057 400.574C275.497 398.936 273.556 393.876 273.556 393.876C273.556 393.876 274.273 367.576 274.495 366.363C274.716 365.151 273.672 361.444 272.618 358.379C271.563 355.313 273.192 343.197 273.556 340.987C273.92 338.777 273.409 328.729 273.029 326.661C272.649 324.593 273.461 315.968 273.461 315.968C272.017 311.695 270.862 315.543 270.862 315.543L269.707 326.735L268.521 349.712C268.521 349.712 268.668 356.694 267.582 358.688C266.496 360.683 265.562 365.817 265.562 365.817L266.09 391.76C266.09 391.76 266.016 397.178 266.38 399.246C266.743 401.314 265.583 406.658 265.583 406.658C261.544 416.066 255.037 405.876 255.037 405.876C255.037 405.876 255.322 404.301 255.902 404.091C256.482 403.881 255.686 400.028 255.253 399.367C254.821 398.705 255.322 394.117 255.322 394.117C255.322 394.117 254.821 389.918 254.025 384.847C253.229 379.776 253.45 360.258 253.951 359.045C254.452 357.833 254.89 352.221 254.89 352.221C254.89 352.221 254.315 349.014 255.037 346.73C255.76 344.446 253.302 334.829 253.302 333.758C253.302 332.688 252.364 326.063 251.858 325.359C251.518 324.748 251.337 324.063 251.33 323.364C251.33 323.364 251.256 321.937 250.028 317.663C249.131 314.514 249.659 308.382 250.028 305.285C250.154 304.136 250.26 303.406 250.26 303.406C250.26 303.406 291.69 296.776 293.351 298.277C293.742 298.624 294 299.852 294.148 301.563C294.617 307.159 293.821 318.304 292.054 322.672Z" fill="url(#paint5_linear)"/>
<g opacity="0.1">
<path opacity="0.1" d="M276.388 354.72C276.583 354.72 281.134 355.103 282.837 354.767C284.54 354.431 276.388 354.72 276.388 354.72Z" fill="url(#paint6_linear)"/>
</g>
<g opacity="0.1">
<path opacity="0.1" d="M276.725 357.381C276.725 357.381 283.053 358.473 283.37 357.906C283.686 357.339 276.725 357.381 276.725 357.381Z" fill="url(#paint7_linear)"/>
</g>
<g opacity="0.1">
<path opacity="0.1" d="M257.431 356.242C257.431 356.242 260.701 356.384 262.483 357.192C264.265 358.001 257.431 356.242 257.431 356.242Z" fill="url(#paint8_linear)"/>
</g>
<path d="M245.546 276.318C245.546 276.318 246.073 286.25 245.788 288.004C245.788 288.004 246.943 296.036 247.898 298.078C248.759 299.706 249.774 301.25 250.93 302.687L253.766 282.969L253.107 276.219L245.546 276.318Z" fill="url(#paint9_linear)"/>
<path d="M275.381 231.078C281.52 231.078 286.496 226.164 286.496 220.101C286.496 214.039 281.52 209.125 275.381 209.125C269.242 209.125 264.265 214.039 264.265 220.101C264.265 226.164 269.242 231.078 275.381 231.078Z" fill="url(#paint10_linear)"/>
<path d="M269.607 225.235C269.607 225.235 266.142 231.934 262.678 235.073C259.214 238.212 283.464 241.771 284.039 241.771C284.614 241.771 279.71 227.519 280.575 225.808C281.44 224.096 269.607 225.235 269.607 225.235Z" fill="url(#paint11_linear)"/>
<g opacity="0.1">
<path opacity="0.1" d="M294.148 301.511C293.604 301.922 293.003 302.255 292.365 302.498C287.941 304.209 283.127 306.587 279.852 305.647C276.578 304.708 269.654 305.647 269.654 305.647C269.654 305.647 255.696 304.503 252.907 305.17C251.972 305.453 250.977 305.478 250.028 305.243C250.154 304.094 250.26 303.364 250.26 303.364C250.26 303.364 291.69 296.734 293.351 298.235C293.742 298.571 294 299.784 294.148 301.511Z" fill="url(#paint12_linear)"/>
</g>
<path d="M297.18 295.18C297.18 295.18 296.795 299.904 292.365 301.642C287.936 303.38 283.127 305.731 279.852 304.792C276.578 303.852 269.654 304.792 269.654 304.792C269.654 304.792 255.696 303.647 252.907 304.314C250.118 304.981 248.689 304.125 249.537 302.886C250.386 301.647 250.313 297.568 250.313 295.857C250.313 294.146 249.348 287.206 250.212 285.972C251.077 284.739 251.847 279.988 253.582 279.227C253.842 279.119 254.074 278.955 254.261 278.746C254.448 278.537 254.585 278.288 254.663 278.019C254.814 277.45 254.814 276.851 254.663 276.282C254.663 276.282 254.373 276.045 253.967 275.688C252.949 274.791 251.22 273.121 251.773 272.576C252.543 271.814 251.773 266.869 251.773 266.869C251.773 266.869 249.944 263.069 250.618 261.646C251.293 260.223 244.75 252.722 244.75 252.722C244.75 252.722 244.75 239.798 252.659 239.225C252.659 239.225 258.238 239.42 258.913 236.947C259.588 234.475 264.012 233.047 264.012 233.047L274.115 235.236C274.115 235.236 283.079 237.136 284.704 235.997C286.328 234.858 287.593 237.514 287.593 237.514C287.593 237.514 293.172 237.803 293.752 238.942C294.332 240.081 291.922 251.2 291.922 251.2C291.922 251.2 287.878 250.822 288.168 255.1C288.458 259.378 286.628 264.79 286.628 264.79C286.628 264.79 286.338 267.94 286.533 268.591C286.728 269.242 286.154 271.594 286.064 271.967V272.014C286.064 272.014 285.663 273.589 286.185 274.171C286.236 274.221 286.292 274.263 286.354 274.297C287.124 274.675 288.279 278.381 288.279 278.381C288.881 279.099 289.191 280.015 289.149 280.948C289.054 282.471 289.629 286.077 292.128 288.172C294.627 290.266 297.18 295.18 297.18 295.18Z" fill="url(#paint13_linear)"/>
<path d="M254.252 273.179V273.583L254.072 278.03C254.072 278.03 248.156 278.502 244.929 277.694C241.702 276.885 243.067 273.373 243.194 272.639C243.289 271.972 244.154 266.413 244.154 265.51C244.154 264.607 244.154 260.901 244.011 259.21C243.869 257.52 244.734 252.748 244.734 252.748L245.356 251.987L252.142 254.554L254.252 273.179Z" fill="url(#paint14_linear)"/>
<g opacity="0.1">
<path opacity="0.1" d="M254.241 273.594L254.062 278.04C254.062 278.04 248.145 278.513 244.918 277.704C241.691 276.896 243.057 273.384 243.183 272.649L254.241 273.594Z" fill="url(#paint15_linear)"/>
</g>
<g opacity="0.1">
<path opacity="0.1" d="M254.689 278.009C254.841 277.439 254.841 276.841 254.689 276.271C254.689 276.271 254.399 276.035 253.993 275.678C259.092 274.98 279.272 272.24 286.075 271.946V271.993C286.075 271.993 285.674 273.568 286.196 274.15L254.689 278.009Z" fill="url(#paint16_linear)"/>
</g>
<g opacity="0.1">
<path opacity="0.1" d="M286.786 281.468C286.786 281.468 288.036 288.455 283.37 290.917C283.37 290.917 286.017 287.437 286.786 281.468Z" fill="url(#paint17_linear)"/>
</g>
<g opacity="0.1">
<path opacity="0.1" d="M256.229 291.096C256.229 291.096 267.487 289.196 269.702 290.665C271.916 292.135 256.229 291.096 256.229 291.096Z" fill="url(#paint18_linear)"/>
</g>
<g opacity="0.1">
<path opacity="0.1" d="M282.884 247.808C282.884 247.808 281.155 254.837 282.452 256.454C283.749 258.071 282.884 247.808 282.884 247.808Z" fill="url(#paint19_linear)"/>
</g>
<g opacity="0.1">
<path opacity="0.1" d="M250.26 242.055C250.26 242.055 251.842 244.68 250.887 247.378C249.933 250.076 250.26 242.055 250.26 242.055Z" fill="url(#paint20_linear)"/>
</g>
<path d="M246.991 264.958C246.991 264.958 249.01 266.15 248.335 268.003C247.66 269.856 246.991 264.958 246.991 264.958Z" fill="url(#paint21_linear)"/>
<g opacity="0.1">
<path opacity="0.1" d="M246.78 259.541C246.78 259.541 248.657 260.544 248.889 262.014C249.121 263.483 246.78 259.541 246.78 259.541Z" fill="url(#paint22_linear)"/>
</g>
<g opacity="0.1">
<path opacity="0.1" d="M274.611 316.372C274.611 316.372 286.402 317.564 288.759 314.797C288.759 314.808 278.123 316.897 274.611 316.372Z" fill="url(#paint23_linear)"/>
</g>
<g opacity="0.1">
<path opacity="0.1" d="M254.257 315.711C254.257 315.711 266.912 318.656 269.412 316.325C269.412 316.325 258.539 317.133 254.257 315.711Z" fill="url(#paint24_linear)"/>
</g>
<g opacity="0.1">
<path opacity="0.1" d="M275.523 320.225C275.523 320.225 280.796 320.225 283.269 320.367C285.742 320.509 275.523 320.225 275.523 320.225Z" fill="url(#paint25_linear)"/>
</g>
<g opacity="0.1">
<path opacity="0.1" d="M255.122 322.456C255.122 322.456 257.721 325.354 260.653 324.834C263.585 324.315 255.122 322.456 255.122 322.456Z" fill="url(#paint26_linear)"/>
</g>
<path d="M260.226 203.775C259.409 205.025 259.382 206.468 259.171 207.854C258.59 211.26 256.979 214.409 254.552 216.878C252.243 219.303 249.073 221.498 248.478 224.458C247.913 227.272 249.833 229.976 250.84 232.711C253.476 239.929 249.785 247.493 248.704 254.942C248.409 257 248.768 259.63 251.341 260.313C252.142 260.528 253.06 260.502 253.777 260.838C254.747 261.294 255.043 262.244 255.222 263.1C255.864 266.158 256.086 269.29 255.881 272.407C255.765 274.161 255.638 276.171 257.31 277.373C258.163 277.897 259.102 278.267 260.084 278.465C262.72 279.169 266.132 279.73 267.909 278.087C268.658 277.4 268.963 276.423 269.865 275.877C271.257 275.064 273.235 275.615 274.991 275.699C276.65 275.77 278.298 275.397 279.764 274.62C281.23 273.843 282.46 272.689 283.327 271.279C284.746 268.754 284.624 265.877 284.097 263.158C283.57 260.439 282.663 257.751 282.594 255C282.512 254.036 282.73 253.071 283.217 252.234C284.271 250.596 286.786 249.85 288.49 248.559C291.685 246.144 291.653 242.186 290.514 238.874C289.376 235.561 287.266 232.396 287.008 228.973C286.894 228.145 287.061 227.302 287.482 226.579C288.041 225.892 288.694 225.288 289.423 224.784C294.09 220.894 293.541 214.5 289.681 210.127C285.4 205.261 266.053 194.814 260.226 203.775Z" fill="url(#paint27_linear)"/>
<g opacity="0.1">
<path opacity="0.1" d="M251.431 235.698C251.89 232.825 251.638 229.884 250.698 227.131C250.17 225.75 249.448 224.375 248.915 222.994C248.647 223.489 248.452 224.019 248.335 224.569C247.766 227.377 249.69 230.081 250.698 232.821C251.037 233.753 251.283 234.717 251.431 235.698Z" fill="url(#paint28_linear)"/>
<path opacity="0.1" d="M255.744 266.827C255.95 263.709 255.726 260.578 255.079 257.52C254.9 256.664 254.605 255.714 253.64 255.257C252.918 254.916 252 254.942 251.199 254.732C250.709 254.615 250.252 254.389 249.863 254.071C249.474 253.753 249.163 253.351 248.952 252.895C248.81 253.62 248.678 254.344 248.573 255.063C248.272 257.121 248.631 259.751 251.209 260.433C252.011 260.649 252.928 260.622 253.651 260.958C254.615 261.415 254.911 262.365 255.09 263.221C255.389 264.639 255.597 266.075 255.712 267.52C255.702 267.295 255.744 267.058 255.744 266.827Z" fill="url(#paint29_linear)"/>
<path opacity="0.1" d="M283.164 265.72C282.298 267.13 281.068 268.283 279.603 269.06C278.138 269.837 276.491 270.21 274.832 270.14C273.077 270.056 271.099 269.505 269.707 270.318C268.779 270.843 268.494 271.841 267.751 272.528C265.974 274.171 262.562 273.61 259.925 272.906C258.943 272.709 258.004 272.339 257.152 271.814C256.424 271.291 255.933 270.502 255.786 269.62C255.786 270.596 255.786 271.578 255.723 272.555C255.607 274.303 255.48 276.313 257.152 277.515C258.004 278.04 258.943 278.41 259.925 278.607C262.562 279.316 265.974 279.872 267.751 278.229C268.494 277.542 268.805 276.57 269.707 276.025C271.099 275.206 273.077 275.757 274.832 275.846C276.492 275.917 278.14 275.544 279.605 274.766C281.07 273.987 282.299 272.832 283.164 271.421C284.53 268.995 284.472 266.245 283.997 263.62C283.814 264.354 283.534 265.06 283.164 265.72Z" fill="url(#paint30_linear)"/>
<path opacity="0.1" d="M289.275 219.209C288.545 219.713 287.89 220.317 287.33 221.004C286.911 221.728 286.745 222.57 286.86 223.398C286.95 224.438 287.171 225.463 287.519 226.448C288.058 225.885 288.645 225.37 289.275 224.91C292.439 222.285 293.198 218.506 292.175 214.983C291.634 216.639 290.627 218.105 289.275 219.209Z" fill="url(#paint31_linear)"/>
<path opacity="0.1" d="M288.342 242.984C286.634 244.27 284.124 245.016 283.069 246.659C282.58 247.495 282.362 248.461 282.447 249.425C282.487 250.537 282.624 251.644 282.858 252.732C282.921 252.604 282.992 252.48 283.069 252.36C284.124 250.727 286.634 249.976 288.342 248.685C291.258 246.48 291.506 242.989 290.641 239.876C290.2 241.116 289.4 242.197 288.342 242.984Z" fill="url(#paint32_linear)"/>
</g>
<path d="M310.315 244.149C308.343 249.089 305.791 251.037 305.791 251.037H304.372L291.885 251.163L290.441 247.268L292.466 238.868L293.71 238.947C294.46 239.339 295.274 239.597 296.115 239.708C297.027 239.708 298.809 239.661 299.336 239.897C299.411 239.931 299.493 239.942 299.574 239.929C300.043 239.882 300.544 239.183 300.544 239.183C300.544 239.183 312.287 239.204 310.315 244.149Z" fill="url(#paint33_linear)"/>
<g opacity="0.1">
<path opacity="0.1" d="M310.315 244.149C308.343 249.089 305.791 251.037 305.791 251.037H304.372C305.11 249.079 306.671 245.058 307.283 244.134C307.895 243.21 302.637 241.068 299.579 239.887C300.048 239.84 300.549 239.141 300.549 239.141C300.549 239.141 312.287 239.204 310.315 244.149Z" fill="url(#paint34_linear)"/>
</g>
<path d="M300.143 247.976C300.143 247.976 306.998 252.417 309.635 250.045C312.271 247.672 311.918 243.136 311.565 242.417C311.211 241.698 308.401 232.443 308.401 232.443L302.985 218.758C302.985 218.758 299.7 200.746 294.796 205.24C289.892 209.734 297.433 220.516 297.433 220.516C297.433 220.516 300.528 228.39 300.37 229.965C300.212 231.54 302.094 237.315 302.094 237.315L300.143 247.976Z" fill="#EFB7B9"/>
<path d="M287.314 408.433C287.261 408.653 287.198 408.884 287.134 409.12C286.491 411.31 285.284 410.816 281.735 414.423C280.852 415.362 279.729 416.044 278.485 416.395C277.242 416.745 275.926 416.751 274.679 416.412C274.486 416.36 274.317 416.242 274.201 416.079C274.086 415.917 274.031 415.718 274.047 415.52L274.49 409.672L274.706 406.858C274.706 406.858 280.359 408.433 283.232 406.433C283.327 406.364 283.422 406.296 283.512 406.218C283.541 406.198 283.567 406.175 283.591 406.149C283.963 405.844 284.421 405.661 284.902 405.628C285.383 405.595 285.863 405.713 286.273 405.964C286.684 406.216 287.005 406.59 287.192 407.032C287.378 407.475 287.421 407.965 287.314 408.433Z" fill="#6C63FF"/>
<path d="M269.57 406.228C269.522 406.448 269.459 406.674 269.396 406.91C268.753 409.105 267.545 408.606 263.996 412.212C263.114 413.153 261.991 413.836 260.747 414.186C259.504 414.537 258.187 414.542 256.941 414.202C256.747 414.151 256.577 414.034 256.462 413.87C256.346 413.707 256.292 413.509 256.308 413.31L256.751 407.462L256.967 404.648C256.967 404.648 262.62 406.223 265.494 404.223C265.591 404.158 265.684 404.088 265.773 404.013L265.852 403.939C266.225 403.635 266.683 403.454 267.164 403.422C267.645 403.39 268.123 403.508 268.533 403.76C268.943 404.013 269.263 404.386 269.449 404.829C269.635 405.271 269.677 405.76 269.57 406.228Z" fill="#6C63FF"/>
<path opacity="0.1" d="M263.733 407.105L263.965 410.144C260.722 413.367 256.857 408.569 255.718 406.994C258.702 408.506 263.733 407.105 263.733 407.105Z" fill="black"/>
<path opacity="0.1" d="M282.8 408.338L283.227 408.06C280.264 412.543 275.845 410.475 274.49 409.672L274.706 406.858C274.706 406.858 280.359 408.433 283.232 406.433C283.006 407.53 282.8 408.338 282.8 408.338Z" fill="black"/>
<path d="M291.817 323.464C289.544 329.118 287.272 348.063 286.992 350.237C286.713 352.41 286.776 361.402 286.776 361.402L286.206 383.45C286.138 386.206 284.097 393.136 284.097 393.136C284.097 393.136 283.391 398.91 283.744 400.842C284.097 402.774 282.821 407.771 282.821 407.771L283.248 407.488C279.699 412.858 274.089 408.832 274.089 408.832C274.089 408.832 272.739 402.328 274.157 400.7C275.576 399.073 273.662 394.054 273.662 394.054C273.662 394.054 274.374 367.969 274.585 366.757C274.795 365.544 273.73 361.88 272.739 358.841C271.748 355.801 273.308 343.78 273.662 341.591C274.015 339.402 273.519 329.428 273.166 327.38C272.813 325.333 273.588 316.776 273.588 316.776C272.17 312.535 271.036 316.351 271.036 316.351L269.897 327.449L268.668 350.237C268.668 350.237 268.811 357.161 267.745 359.161C266.68 361.161 265.763 366.206 265.763 366.206L266.258 391.928C266.258 391.928 266.19 397.304 266.543 399.351C266.896 401.398 265.763 406.7 265.763 406.7C261.787 416.029 255.396 405.923 255.396 405.923C255.396 405.923 255.681 404.349 256.245 404.154C256.809 403.96 256.034 400.123 255.607 399.488C255.18 398.852 255.681 394.238 255.681 394.238C255.681 394.238 255.153 390.065 254.399 385.046C253.645 380.028 253.835 360.657 254.331 359.455C254.826 358.253 255.253 352.667 255.253 352.667C255.253 352.667 254.684 349.486 255.396 347.223C256.108 344.961 253.693 335.417 253.693 334.357C253.693 333.296 252.77 326.724 252.269 326.015C251.943 325.406 251.773 324.727 251.773 324.036C251.773 324.036 251.705 322.624 250.497 318.383C249.617 315.285 250.133 309.18 250.497 306.104C250.624 304.965 250.729 304.24 250.729 304.24C250.729 304.24 291.49 297.668 293.125 299.154C293.504 299.5 293.763 300.729 293.905 302.414C294.343 308.052 293.562 319.102 291.817 323.464Z" fill="#444053"/>
<path opacity="0.1" d="M276.409 355.224C276.599 355.224 281.097 355.602 282.737 355.271C284.377 354.94 276.409 355.224 276.409 355.224Z" fill="black"/>
<path opacity="0.1" d="M276.741 357.864C276.741 357.864 282.942 358.951 283.275 358.389C283.607 357.828 276.741 357.864 276.741 357.864Z" fill="black"/>
<path opacity="0.1" d="M257.758 356.736C257.758 356.736 260.975 356.877 262.725 357.675C264.476 358.473 257.758 356.736 257.758 356.736Z" fill="black"/>
<path d="M246.062 277.463C246.062 277.463 246.59 287.311 246.3 289.054C246.3 289.054 247.439 297.022 248.383 299.028C249.231 300.642 250.23 302.173 251.367 303.6L254.162 284.061L253.503 277.368L246.062 277.463Z" fill="#EFB7B9"/>
<path d="M275.418 232.595C281.458 232.595 286.354 227.721 286.354 221.708C286.354 215.695 281.458 210.82 275.418 210.82C269.378 210.82 264.481 215.695 264.481 221.708C264.481 227.721 269.378 232.595 275.418 232.595Z" fill="#EFB7B9"/>
<path d="M269.733 226.8C269.733 226.8 266.327 233.44 262.915 236.553C259.504 239.666 283.369 243.199 283.939 243.199C284.508 243.199 279.678 229.057 280.527 227.362C281.376 225.666 269.733 226.8 269.733 226.8Z" fill="#EFB7B9"/>
<path opacity="0.1" d="M293.879 302.466C293.345 302.874 292.755 303.204 292.128 303.448C287.773 305.144 283.037 307.501 279.815 306.556C276.594 305.611 269.797 306.556 269.797 306.556C269.797 306.556 256.087 305.427 253.324 306.083C252.396 306.361 251.409 306.381 250.471 306.141C250.597 305.002 250.703 304.277 250.703 304.277C250.703 304.277 291.464 297.705 293.098 299.191C293.478 299.537 293.736 300.739 293.879 302.466Z" fill="black"/>
<path d="M296.874 296.167C296.874 296.167 296.494 300.891 292.128 302.576C287.762 304.262 283.037 306.629 279.815 305.689C276.594 304.75 269.797 305.689 269.797 305.689C269.797 305.689 256.087 304.556 253.324 305.217C250.56 305.878 249.158 305.028 250.007 303.8C250.856 302.571 250.766 298.55 250.766 296.828C250.766 295.106 249.817 288.251 250.671 287.022C251.525 285.794 252.253 281.085 253.988 280.329C254.243 280.221 254.47 280.057 254.652 279.85C254.835 279.643 254.968 279.398 255.043 279.132C255.189 278.567 255.189 277.975 255.043 277.41C255.043 277.41 254.758 277.174 254.357 276.822C253.355 275.93 251.657 274.276 252.206 273.736C252.96 272.98 252.206 268.077 252.206 268.077C252.206 268.077 250.402 264.308 251.067 262.895C251.731 261.483 245.266 254.034 245.266 254.034C245.266 254.034 245.266 241.215 253.034 240.648C253.034 240.648 258.523 240.837 259.187 238.385C259.852 235.934 264.207 234.522 264.207 234.522L274.147 236.69C274.147 236.69 282.953 238.574 284.561 237.446C286.17 236.317 287.382 238.947 287.382 238.947C287.382 238.947 292.872 239.231 293.441 240.359C294.011 241.488 291.643 252.517 291.643 252.517C291.643 252.517 287.667 252.144 287.952 256.386C288.237 260.628 286.433 265.998 286.433 265.998C286.433 265.998 286.148 269.111 286.338 269.767C286.528 270.423 285.964 272.749 285.879 273.116V273.163C285.879 273.163 285.489 274.738 286.001 275.3C286.046 275.352 286.102 275.395 286.164 275.426C286.924 275.799 288.063 279.479 288.063 279.479C288.652 280.191 288.955 281.097 288.912 282.019C288.817 283.531 289.386 287.111 291.849 289.185C294.311 291.259 296.874 296.167 296.874 296.167Z" fill="#6C63FF"/>
<path d="M254.631 274.35V274.749L254.457 279.158C254.457 279.158 248.657 279.631 245.493 278.828C242.329 278.025 243.658 274.544 243.779 273.814C243.874 273.153 244.728 267.636 244.728 266.743C244.728 265.851 244.728 262.171 244.586 260.475C244.444 258.78 245.293 254.066 245.293 254.066L245.91 253.31L252.585 255.856L254.631 274.35Z" fill="#6C63FF"/>
<path opacity="0.1" d="M254.615 274.749L254.441 279.158C254.441 279.158 248.641 279.631 245.477 278.828C242.313 278.025 243.642 274.544 243.763 273.814L254.615 274.749Z" fill="black"/>
<path opacity="0.1" d="M255.037 279.137C255.184 278.573 255.184 277.98 255.037 277.416C255.037 277.416 254.753 277.179 254.352 276.828C259.372 276.135 279.225 273.421 285.916 273.153V273.2C285.916 273.2 285.526 274.775 286.038 275.337L255.037 279.137Z" fill="black"/>
<path opacity="0.1" d="M286.633 282.55C286.633 282.55 287.867 289.479 283.275 291.93C283.275 291.93 285.879 288.492 286.633 282.55Z" fill="black"/>
<path opacity="0.1" d="M256.572 292.12C256.572 292.12 267.645 290.235 269.828 291.694C272.011 293.154 256.572 292.12 256.572 292.12Z" fill="black"/>
<path opacity="0.1" d="M282.8 249.184C282.8 249.184 281.097 256.16 282.373 257.761C283.649 259.363 282.8 249.184 282.8 249.184Z" fill="black"/>
<path opacity="0.1" d="M250.703 243.483C250.703 243.483 252.285 246.071 251.32 248.759C250.355 251.446 250.703 243.483 250.703 243.483Z" fill="black"/>
<path d="M247.486 266.197C247.486 266.197 249.474 267.378 248.81 269.216C248.145 271.053 247.486 266.197 247.486 266.197Z" fill="#6C63FF"/>
<path opacity="0.1" d="M247.307 260.827C247.307 260.827 249.153 261.814 249.39 263.273C249.627 264.733 247.307 260.827 247.307 260.827Z" fill="black"/>
<path opacity="0.1" d="M274.658 317.191C274.658 317.191 286.259 318.372 288.574 315.616C288.574 315.637 278.112 317.69 274.658 317.191Z" fill="black"/>
<path opacity="0.1" d="M254.631 316.53C254.631 316.53 267.081 319.454 269.544 317.144C269.544 317.165 258.844 317.947 254.631 316.53Z" fill="black"/>
<path opacity="0.1" d="M275.555 321.008C275.555 321.008 280.765 321.008 283.18 321.149C285.595 321.291 275.555 321.008 275.555 321.008Z" fill="black"/>
<path opacity="0.1" d="M255.485 323.223C255.485 323.223 258.043 326.1 260.927 325.58C263.812 325.06 255.485 323.223 255.485 323.223Z" fill="black"/>
<path d="M260.49 205.487C259.688 206.726 259.662 208.159 259.435 209.534C258.861 212.898 257.276 216.01 254.89 218.458C252.622 220.863 249.506 223.041 248.915 225.976C248.362 228.763 250.249 231.446 251.241 234.16C253.877 241.315 250.186 248.822 249.131 256.208C248.836 258.25 249.189 260.859 251.715 261.536C252.506 261.746 253.408 261.72 254.12 262.061C255.069 262.512 255.359 263.457 255.533 264.302C256.168 267.337 256.388 270.443 256.187 273.536C256.071 275.274 255.944 277.269 257.589 278.466C258.43 278.981 259.354 279.347 260.321 279.547C262.915 280.245 266.269 280.796 268.02 279.169C268.753 278.486 269.027 277.521 269.944 276.98C271.315 276.171 273.261 276.717 274.985 276.801C276.621 276.869 278.245 276.498 279.688 275.727C281.13 274.956 282.338 273.813 283.185 272.418C284.582 269.909 284.461 267.064 283.944 264.365C283.427 261.667 282.531 259 282.468 256.271C282.385 255.316 282.599 254.36 283.079 253.53C284.134 251.903 286.586 251.163 288.268 249.887C291.432 247.493 291.4 243.588 290.261 240.281C289.122 236.973 287.061 233.855 286.808 230.459C286.696 229.638 286.859 228.805 287.272 228.086C287.841 227.42 288.499 226.836 289.228 226.348C293.821 222.49 293.278 216.149 289.481 211.812C285.273 206.983 266.237 196.626 260.49 205.487Z" fill="#E3787D"/>
<g opacity="0.1">
<path opacity="0.1" d="M251.858 237.173C252.305 234.323 252.055 231.407 251.13 228.674C250.634 227.304 249.907 225.944 249.374 224.574C249.113 225.07 248.921 225.6 248.805 226.149C248.251 228.936 250.139 231.619 251.13 234.333C251.467 235.253 251.711 236.204 251.858 237.173Z" fill="black"/>
<path opacity="0.1" d="M256.087 268.05C256.288 264.957 256.068 261.851 255.433 258.816C255.259 257.971 254.969 257.026 254.02 256.575C253.308 256.234 252.406 256.26 251.615 256.05C251.133 255.931 250.684 255.706 250.301 255.391C249.919 255.075 249.613 254.678 249.406 254.228C249.263 254.942 249.137 255.662 249.031 256.375C248.736 258.418 249.089 261.026 251.615 261.704C252.406 261.914 253.308 261.887 254.02 262.229C254.969 262.685 255.259 263.625 255.433 264.475C255.725 265.882 255.93 267.306 256.044 268.738C256.055 268.507 256.071 268.276 256.087 268.05Z" fill="black"/>
<path opacity="0.1" d="M283.085 266.932C282.238 268.328 281.03 269.471 279.588 270.242C278.145 271.013 276.521 271.384 274.885 271.316C273.161 271.232 271.194 270.686 269.844 271.494C268.932 272.019 268.652 273.001 267.919 273.683C266.169 275.31 262.815 274.759 260.221 274.061C259.254 273.863 258.331 273.495 257.495 272.974C256.78 272.451 256.296 271.672 256.145 270.801C256.145 271.767 256.145 272.738 256.087 273.704C255.971 275.442 255.844 277.437 257.495 278.633C258.333 279.15 259.256 279.516 260.221 279.715C262.815 280.413 266.169 280.964 267.919 279.342C268.652 278.654 268.932 277.689 269.844 277.148C271.215 276.339 273.161 276.885 274.885 276.969C276.521 277.038 278.145 276.667 279.588 275.895C281.03 275.124 282.238 273.981 283.085 272.586C284.429 270.176 284.371 267.452 283.902 264.848C283.723 265.576 283.448 266.276 283.085 266.932Z" fill="black"/>
<path opacity="0.1" d="M289.085 220.821C288.366 221.321 287.722 221.92 287.171 222.6C286.759 223.319 286.596 224.153 286.707 224.973C286.8 226.005 287.02 227.023 287.361 228.002C287.887 227.441 288.464 226.929 289.085 226.474C292.191 223.85 292.945 220.122 291.938 216.631C291.408 218.27 290.419 219.724 289.085 220.821Z" fill="black"/>
<path opacity="0.1" d="M288.168 244.401C286.486 245.677 284.034 246.417 282.979 248.039C282.5 248.871 282.287 249.829 282.368 250.785C282.408 251.888 282.544 252.986 282.774 254.066C282.832 253.938 282.901 253.815 282.979 253.698C284.034 252.071 286.486 251.331 288.168 250.055C291.037 247.866 291.279 244.407 290.43 241.32C289.996 242.545 289.209 243.617 288.168 244.401Z" fill="black"/>
</g>
<path d="M309.788 245.556C307.847 250.459 305.332 252.381 305.332 252.381H303.934L291.653 252.507L290.235 248.643L292.223 240.302L293.452 240.349C294.19 240.738 294.991 240.994 295.819 241.105C296.721 241.105 298.456 241.057 298.983 241.294C299.056 241.325 299.136 241.336 299.215 241.325C299.679 241.278 300.164 240.585 300.164 240.585C300.164 240.585 311.723 240.653 309.788 245.556Z" fill="#6C63FF"/>
<path opacity="0.1" d="M309.788 245.556C307.847 250.459 305.332 252.381 305.332 252.381H303.934C304.667 250.438 306.202 246.454 306.803 245.556C307.404 244.659 302.231 242.517 299.226 241.357C299.69 241.309 300.175 240.616 300.175 240.616C300.175 240.616 311.723 240.653 309.788 245.556Z" fill="black"/>
<defs>
<linearGradient id="paint0_linear" x1="302.875" y1="249.378" x2="302.875" y2="202.794" gradientUnits="userSpaceOnUse">
<stop stop-color="#808080" stop-opacity="0.25"/>
<stop offset="0.54" stop-color="#808080" stop-opacity="0.12"/>
<stop offset="1" stop-color="#808080" stop-opacity="0.1"/>
</linearGradient>
<linearGradient id="paint1_linear" x1="8416.48" y1="9823.11" x2="8416.48" y2="9587.15" gradientUnits="userSpaceOnUse">
<stop stop-color="#808080" stop-opacity="0.25"/>
<stop offset="0.54" stop-color="#808080" stop-opacity="0.12"/>
<stop offset="1" stop-color="#808080" stop-opacity="0.1"/>
</linearGradient>
<linearGradient id="paint2_linear" x1="7934.17" y1="9777.74" x2="7934.17" y2="9541.68" gradientUnits="userSpaceOnUse">
<stop stop-color="#808080" stop-opacity="0.25"/>
<stop offset="0.54" stop-color="#808080" stop-opacity="0.12"/>
<stop offset="1" stop-color="#808080" stop-opacity="0.1"/>
</linearGradient>
<linearGradient id="paint3_linear" x1="4960.72" y1="3988.82" x2="4960.72" y2="3953.87" gradientUnits="userSpaceOnUse">
<stop stop-color="#808080" stop-opacity="0.25"/>
<stop offset="0.54" stop-color="#808080" stop-opacity="0.12"/>
<stop offset="1" stop-color="#808080" stop-opacity="0.1"/>
</linearGradient>
<linearGradient id="paint4_linear" x1="5586.67" y1="4128.11" x2="5586.67" y2="4090.28" gradientUnits="userSpaceOnUse">
<stop stop-color="#808080" stop-opacity="0.25"/>
<stop offset="0.54" stop-color="#808080" stop-opacity="0.12"/>
<stop offset="1" stop-color="#808080" stop-opacity="0.1"/>
</linearGradient>
<linearGradient id="paint5_linear" x1="26411.2" y1="94314.1" x2="26411.2" y2="70160.1" gradientUnits="userSpaceOnUse">
<stop stop-color="#808080" stop-opacity="0.25"/>
<stop offset="0.54" stop-color="#808080" stop-opacity="0.12"/>
<stop offset="1" stop-color="#808080" stop-opacity="0.1"/>
</linearGradient>
<linearGradient id="paint6_linear" x1="4282.77" y1="573.752" x2="4282.77" y2="573.58" gradientUnits="userSpaceOnUse">
<stop stop-color="#808080" stop-opacity="0.25"/>
<stop offset="0.54" stop-color="#808080" stop-opacity="0.12"/>
<stop offset="1" stop-color="#808080" stop-opacity="0.1"/>
</linearGradient>
<linearGradient id="paint7_linear" x1="4270.13" y1="863.647" x2="4270.13" y2="862.745" gradientUnits="userSpaceOnUse">
<stop stop-color="#808080" stop-opacity="0.25"/>
<stop offset="0.54" stop-color="#808080" stop-opacity="0.12"/>
<stop offset="1" stop-color="#808080" stop-opacity="0.1"/>
</linearGradient>
<linearGradient id="paint8_linear" x1="3264.53" y1="1209.2" x2="3264.53" y2="1206.63" gradientUnits="userSpaceOnUse">
<stop stop-color="#808080" stop-opacity="0.25"/>
<stop offset="0.54" stop-color="#808080" stop-opacity="0.12"/>
<stop offset="1" stop-color="#808080" stop-opacity="0.1"/>
</linearGradient>
<linearGradient id="paint9_linear" x1="4704.97" y1="16935.7" x2="4704.97" y2="15601.5" gradientUnits="userSpaceOnUse">
<stop stop-color="#808080" stop-opacity="0.25"/>
<stop offset="0.54" stop-color="#808080" stop-opacity="0.12"/>
<stop offset="1" stop-color="#808080" stop-opacity="0.1"/>
</linearGradient>
<linearGradient id="paint10_linear" x1="11874.3" y1="9872.82" x2="11874.3" y2="8954.72" gradientUnits="userSpaceOnUse">
<stop stop-color="#808080" stop-opacity="0.25"/>
<stop offset="0.54" stop-color="#808080" stop-opacity="0.12"/>
<stop offset="1" stop-color="#808080" stop-opacity="0.1"/>
</linearGradient>
<linearGradient id="paint11_linear" x1="13030.5" y1="8904.8" x2="13030.5" y2="8360.21" gradientUnits="userSpaceOnUse">
<stop stop-color="#808080" stop-opacity="0.25"/>
<stop offset="0.54" stop-color="#808080" stop-opacity="0.12"/>
<stop offset="1" stop-color="#808080" stop-opacity="0.1"/>
</linearGradient>
<linearGradient id="paint12_linear" x1="26059.7" y1="5283.9" x2="26059.7" y2="5166.59" gradientUnits="userSpaceOnUse">
<stop stop-color="#808080" stop-opacity="0.25"/>
<stop offset="0.54" stop-color="#808080" stop-opacity="0.12"/>
<stop offset="1" stop-color="#808080" stop-opacity="0.1"/>
</linearGradient>
<linearGradient id="paint13_linear" x1="30803.1" y1="45842.3" x2="30803.1" y2="35976.7" gradientUnits="userSpaceOnUse">
<stop stop-color="#808080" stop-opacity="0.25"/>
<stop offset="0.54" stop-color="#808080" stop-opacity="0.12"/>
<stop offset="1" stop-color="#808080" stop-opacity="0.1"/>
</linearGradient>
<linearGradient id="paint14_linear" x1="6430.44" y1="15507.4" x2="6430.44" y2="14199.4" gradientUnits="userSpaceOnUse">
<stop stop-color="#808080" stop-opacity="0.25"/>
<stop offset="0.54" stop-color="#808080" stop-opacity="0.12"/>
<stop offset="1" stop-color="#808080" stop-opacity="0.1"/>
</linearGradient>
<linearGradient id="paint15_linear" x1="6430.2" y1="3494.15" x2="6430.2" y2="3435.93" gradientUnits="userSpaceOnUse">
<stop stop-color="#808080" stop-opacity="0.25"/>
<stop offset="0.54" stop-color="#808080" stop-opacity="0.12"/>
<stop offset="1" stop-color="#808080" stop-opacity="0.1"/>
</linearGradient>
<linearGradient id="paint16_linear" x1="18967.3" y1="3803.18" x2="18967.3" y2="3733.15" gradientUnits="userSpaceOnUse">
<stop stop-color="#808080" stop-opacity="0.25"/>
<stop offset="0.54" stop-color="#808080" stop-opacity="0.12"/>
<stop offset="1" stop-color="#808080" stop-opacity="0.1"/>
</linearGradient>
<linearGradient id="paint17_linear" x1="2459.62" y1="6016.88" x2="2459.62" y2="5846.61" gradientUnits="userSpaceOnUse">
<stop stop-color="#808080" stop-opacity="0.25"/>
<stop offset="0.54" stop-color="#808080" stop-opacity="0.12"/>
<stop offset="1" stop-color="#808080" stop-opacity="0.1"/>
</linearGradient>
<linearGradient id="paint18_linear" x1="8029.01" y1="1107.8" x2="8029.01" y2="1104.36" gradientUnits="userSpaceOnUse">
<stop stop-color="#808080" stop-opacity="0.25"/>
<stop offset="0.54" stop-color="#808080" stop-opacity="0.12"/>
<stop offset="1" stop-color="#808080" stop-opacity="0.1"/>
</linearGradient>
<linearGradient id="paint19_linear" x1="1006.1" y1="5024.69" x2="1006.1" y2="4876.54" gradientUnits="userSpaceOnUse">
<stop stop-color="#808080" stop-opacity="0.25"/>
<stop offset="0.54" stop-color="#808080" stop-opacity="0.12"/>
<stop offset="1" stop-color="#808080" stop-opacity="0.1"/>
</linearGradient>
<linearGradient id="paint20_linear" x1="787.923" y1="3328.66" x2="787.923" y2="3262.77" gradientUnits="userSpaceOnUse">
<stop stop-color="#808080" stop-opacity="0.25"/>
<stop offset="0.54" stop-color="#808080" stop-opacity="0.12"/>
<stop offset="1" stop-color="#808080" stop-opacity="0.1"/>
</linearGradient>
<linearGradient id="paint21_linear" x1="1045.84" y1="2218.86" x2="1045.84" y2="2196" gradientUnits="userSpaceOnUse">
<stop stop-color="#808080" stop-opacity="0.25"/>
<stop offset="0.54" stop-color="#808080" stop-opacity="0.12"/>
<stop offset="1" stop-color="#808080" stop-opacity="0.1"/>
</linearGradient>
<linearGradient id="paint22_linear" x1="1392.5" y1="1807.19" x2="1392.5" y2="1792.23" gradientUnits="userSpaceOnUse">
<stop stop-color="#808080" stop-opacity="0.25"/>
<stop offset="0.54" stop-color="#808080" stop-opacity="0.12"/>
<stop offset="1" stop-color="#808080" stop-opacity="0.1"/>
</linearGradient>
<linearGradient id="paint23_linear" x1="8808.33" y1="1515.27" x2="8808.33" y2="1508.92" gradientUnits="userSpaceOnUse">
<stop stop-color="#808080" stop-opacity="0.25"/>
<stop offset="0.54" stop-color="#808080" stop-opacity="0.12"/>
<stop offset="1" stop-color="#808080" stop-opacity="0.1"/>
</linearGradient>
<linearGradient id="paint24_linear" x1="8825.06" y1="1309.1" x2="8825.06" y2="1304.74" gradientUnits="userSpaceOnUse">
<stop stop-color="#808080" stop-opacity="0.25"/>
<stop offset="0.54" stop-color="#808080" stop-opacity="0.12"/>
<stop offset="1" stop-color="#808080" stop-opacity="0.1"/>
</linearGradient>
<linearGradient id="paint25_linear" x1="5148.46" y1="440.522" x2="5148.46" y2="440.46" gradientUnits="userSpaceOnUse">
<stop stop-color="#808080" stop-opacity="0.25"/>
<stop offset="0.54" stop-color="#808080" stop-opacity="0.12"/>
<stop offset="1" stop-color="#808080" stop-opacity="0.1"/>
</linearGradient>
<linearGradient id="paint26_linear" x1="3690.14" y1="1961.77" x2="3690.14" y2="1950.42" gradientUnits="userSpaceOnUse">
<stop stop-color="#808080" stop-opacity="0.25"/>
<stop offset="0.54" stop-color="#808080" stop-opacity="0.12"/>
<stop offset="1" stop-color="#808080" stop-opacity="0.1"/>
</linearGradient>
<linearGradient id="paint27_linear" x1="26078.9" y1="46318.3" x2="26078.9" y2="34462.9" gradientUnits="userSpaceOnUse">
<stop stop-color="#808080" stop-opacity="0.25"/>
<stop offset="0.54" stop-color="#808080" stop-opacity="0.12"/>
<stop offset="1" stop-color="#808080" stop-opacity="0.1"/>
</linearGradient>
<linearGradient id="paint28_linear" x1="2106.17" y1="6597.89" x2="2106.17" y2="6290.46" gradientUnits="userSpaceOnUse">
<stop stop-color="#808080" stop-opacity="0.25"/>
<stop offset="0.54" stop-color="#808080" stop-opacity="0.12"/>
<stop offset="1" stop-color="#808080" stop-opacity="0.1"/>
</linearGradient>
<linearGradient id="paint29_linear" x1="4261.77" y1="8478.49" x2="4261.77" y2="8070.88" gradientUnits="userSpaceOnUse">
<stop stop-color="#808080" stop-opacity="0.25"/>
<stop offset="0.54" stop-color="#808080" stop-opacity="0.12"/>
<stop offset="1" stop-color="#808080" stop-opacity="0.1"/>
</linearGradient>
<linearGradient id="paint30_linear" x1="16896.4" y1="9434.7" x2="16896.4" y2="8966.29" gradientUnits="userSpaceOnUse">
<stop stop-color="#808080" stop-opacity="0.25"/>
<stop offset="0.54" stop-color="#808080" stop-opacity="0.12"/>
<stop offset="1" stop-color="#808080" stop-opacity="0.1"/>
</linearGradient>
<linearGradient id="paint31_linear" x1="3859.76" y1="5766.19" x2="3859.76" y2="5515.8" gradientUnits="userSpaceOnUse">
<stop stop-color="#808080" stop-opacity="0.25"/>
<stop offset="0.54" stop-color="#808080" stop-opacity="0.12"/>
<stop offset="1" stop-color="#808080" stop-opacity="0.1"/>
</linearGradient>
<linearGradient id="paint32_linear" x1="5583.04" y1="7108.24" x2="5583.04" y2="6793.52" gradientUnits="userSpaceOnUse">
<stop stop-color="#808080" stop-opacity="0.25"/>
<stop offset="0.54" stop-color="#808080" stop-opacity="0.12"/>
<stop offset="1" stop-color="#808080" stop-opacity="0.1"/>
</linearGradient>
<linearGradient id="paint33_linear" x1="13129.9" y1="6770.85" x2="13129.9" y2="6482.67" gradientUnits="userSpaceOnUse">
<stop stop-color="#808080" stop-opacity="0.25"/>
<stop offset="0.54" stop-color="#808080" stop-opacity="0.12"/>
<stop offset="1" stop-color="#808080" stop-opacity="0.1"/>
</linearGradient>
<linearGradient id="paint34_linear" x1="7395.92" y1="6556.31" x2="7395.92" y2="6286.76" gradientUnits="userSpaceOnUse">
<stop stop-color="#808080" stop-opacity="0.25"/>
<stop offset="0.54" stop-color="#808080" stop-opacity="0.12"/>
<stop offset="1" stop-color="#808080" stop-opacity="0.1"/>
</linearGradient>
</defs>
</svg>
