<svg width="36" height="36" viewBox="0 0 36 36" fill="none" xmlns="http://www.w3.org/2000/svg">
<rect width="36" height="36" rx="7" fill="#2D3469"/>
<g clip-path="url(#clip0)">
<path d="M16.686 7.50352C14.8804 7.52532 10.9985 7.82203 8.82721 9.81399C7.21213 11.4143 6.64823 13.7803 6.58213 16.706C6.52729 19.6212 6.4612 25.0957 11.7381 26.5863V28.8567C11.7381 28.8567 11.7051 29.7652 12.3056 29.9515C13.0453 30.1856 13.4664 29.4867 14.1696 28.7358L15.4809 27.2529C19.0914 27.5531 21.8568 26.8613 22.1753 26.7586C22.908 26.5245 27.0346 25.9971 27.7089 20.5219C28.4008 14.8673 27.3721 11.3046 25.5152 9.69305H25.5039C24.9435 9.17696 22.6914 7.53586 17.6599 7.51758C17.6599 7.51758 17.2865 7.49227 16.686 7.50282V7.50352ZM16.7479 9.09328C17.2605 9.08977 17.572 9.11157 17.572 9.11157C21.8308 9.12282 23.8635 10.4046 24.3431 10.8363C25.9068 12.1765 26.7126 15.3884 26.1227 20.1091C25.5623 24.6865 22.2154 24.9762 21.596 25.1738C21.3323 25.2581 18.8967 25.8586 15.8282 25.661C15.8282 25.661 13.5431 28.4187 12.8287 29.1288C12.7155 29.2533 12.5833 29.2898 12.4989 29.2716C12.378 29.242 12.3414 29.0923 12.3485 28.887L12.3703 25.1189C7.89487 23.8814 8.15854 19.212 8.20635 16.7728C8.2612 14.3337 8.71893 12.3382 10.0816 10.9868C11.916 9.32813 15.2123 9.10453 16.7465 9.09328H16.7479ZM17.0854 11.5317C17.0486 11.5314 17.012 11.5383 16.9779 11.5521C16.9437 11.5659 16.9127 11.5863 16.8865 11.6122C16.8603 11.6381 16.8394 11.6689 16.8252 11.7029C16.8109 11.7369 16.8036 11.7733 16.8035 11.8102C16.8035 11.9677 16.9314 12.0921 17.0854 12.0921C17.7826 12.0789 18.4754 12.2037 19.1241 12.4596C19.7727 12.7154 20.3643 13.0971 20.8647 13.5827C21.8864 14.5748 22.3842 15.908 22.4031 17.651C22.4031 17.805 22.5276 17.933 22.6851 17.933V17.9217C22.7593 17.9219 22.8306 17.8927 22.8834 17.8406C22.9363 17.7884 22.9663 17.7175 22.9671 17.6433C23.0012 16.8228 22.8681 16.004 22.576 15.2366C22.2838 14.4692 21.8387 13.7692 21.2676 13.1791C20.1546 12.0914 18.7441 11.531 17.0854 11.531V11.5317ZM13.3792 12.1765C13.1802 12.1474 12.9772 12.1874 12.8041 12.2897H12.7893C12.3873 12.5253 12.0252 12.8232 11.7164 13.1721C11.4597 13.4688 11.3205 13.7691 11.2839 14.058C11.2621 14.2303 11.2769 14.4026 11.3282 14.5671L11.3465 14.5784C11.6355 15.4277 12.0131 16.2448 12.4743 17.014C13.0685 18.0947 13.7997 19.0941 14.6498 19.9875L14.6751 20.0241L14.7152 20.0536L14.7405 20.0831L14.77 20.1084C15.6667 20.961 16.6685 21.6957 17.7513 22.2945C18.9888 22.968 19.7397 23.2866 20.1904 23.4188V23.4258C20.3226 23.4659 20.4428 23.4841 20.5638 23.4841C20.9479 23.456 21.3115 23.3001 21.5967 23.0412C21.944 22.7323 22.2385 22.3686 22.4685 21.9647V21.9577C22.6844 21.5513 22.6113 21.1666 22.2998 20.9065C21.676 20.3612 21.0014 19.8769 20.2853 19.4602C19.8058 19.2 19.3185 19.3575 19.121 19.6212L18.6998 20.152C18.4839 20.4157 18.0916 20.3791 18.0916 20.3791L18.0803 20.3862C15.1546 19.6388 14.3742 16.6765 14.3742 16.6765C14.3742 16.6765 14.3376 16.2736 14.6083 16.0683L15.1356 15.6436C15.3881 15.4383 15.5639 14.9517 15.2931 14.4715C14.8793 13.7544 14.396 13.0797 13.8503 12.457C13.731 12.3102 13.5637 12.2104 13.3778 12.1751L13.3792 12.1765ZM17.572 13.0118C17.1986 13.0118 17.1986 13.5757 17.5755 13.5757C18.0398 13.5832 18.498 13.6822 18.924 13.8669C19.35 14.0516 19.7354 14.3185 20.0582 14.6522C20.3527 14.977 20.579 15.3577 20.7237 15.7716C20.8684 16.1855 20.9285 16.6242 20.9006 17.0618C20.9019 17.1359 20.9321 17.2065 20.9848 17.2585C21.0375 17.3105 21.1085 17.3399 21.1825 17.3402L21.1938 17.355C21.2684 17.3545 21.3398 17.3246 21.3925 17.2718C21.4453 17.2191 21.4752 17.1477 21.4757 17.073C21.501 15.9558 21.1537 15.0185 20.4724 14.2676C19.7875 13.5166 18.832 13.0955 17.6121 13.0118H17.572V13.0118ZM18.0339 14.5277C17.6493 14.5165 17.6346 15.0916 18.0156 15.1029C18.9424 15.1507 19.3924 15.619 19.4514 16.5823C19.4527 16.6554 19.4826 16.7251 19.5346 16.7765C19.5867 16.8279 19.6567 16.8568 19.7299 16.8572H19.7411C19.7787 16.8556 19.8156 16.8465 19.8497 16.8305C19.8837 16.8144 19.9142 16.7918 19.9394 16.7638C19.9646 16.7359 19.984 16.7032 19.9964 16.6677C20.0089 16.6322 20.0141 16.5945 20.0118 16.557C19.9457 15.3012 19.2609 14.5938 18.0452 14.5284H18.0339V14.5277Z" fill="white"/>
</g>
<defs>
<clipPath id="clip0">
<rect width="22.5" height="22.5" fill="white" transform="translate(6 7.5)"/>
</clipPath>
</defs>
</svg>
