<svg width="40" height="40" viewBox="0 0 40 40" fill="none" xmlns="http://www.w3.org/2000/svg">
<path d="M30.9495 17.9277C30.9865 13.5842 27.2871 9.60247 22.7031 9.05185C22.6119 9.04102 22.5126 9.02459 22.4075 9.00714C22.1805 8.96954 21.9458 8.93091 21.7091 8.93091C20.7696 8.93091 20.5184 9.59086 20.4523 9.98449C20.388 10.3672 20.4493 10.6885 20.6342 10.9401C20.9454 11.3632 21.4928 11.4383 21.9325 11.4985C22.0614 11.5163 22.183 11.5329 22.2848 11.5557C26.4034 12.476 27.7902 13.9229 28.468 18.0065C28.4845 18.1062 28.492 18.2292 28.4999 18.3596C28.5295 18.8478 28.5911 19.8633 29.683 19.8633H29.6831C29.774 19.8633 29.8716 19.8555 29.9733 19.84C30.9901 19.6855 30.9582 18.7571 30.9429 18.3111C30.9386 18.1855 30.9345 18.0666 30.9451 17.9876C30.9479 17.9677 30.9494 17.9477 30.9495 17.9277Z" fill="#2E3A59"/>
<path d="M21.4425 7.45772C21.5645 7.4665 21.68 7.47493 21.7761 7.48967C28.5393 8.52977 31.6495 11.7341 32.5115 18.5501C32.5261 18.666 32.5284 18.8073 32.5308 18.9569C32.5394 19.4894 32.5571 20.5973 33.7468 20.6202L33.7838 20.6206C34.1569 20.6206 34.4537 20.5081 34.666 20.2859C35.0364 19.8985 35.0105 19.3231 34.9897 18.8605C34.9846 18.7471 34.9797 18.6402 34.9809 18.5466C35.0669 11.5756 29.0327 5.25428 22.068 5.01925C22.0391 5.01829 22.0115 5.01986 21.9837 5.02377C21.97 5.02575 21.9446 5.02828 21.9012 5.02828C21.8317 5.02828 21.7463 5.02226 21.6557 5.01613C21.5461 5.0086 21.4219 5 21.296 5C20.1869 5 19.976 5.78835 19.9491 6.25828C19.8868 7.34442 20.9375 7.42083 21.4425 7.45772Z" fill="#2E3A59"/>
<path d="M32.1851 27.3594C32.0413 27.2496 31.8926 27.136 31.7534 27.0238C31.015 26.4296 30.2294 25.8818 29.4697 25.3521C29.312 25.2423 29.1543 25.1324 28.9972 25.0221C28.024 24.3385 27.1491 24.0063 26.3225 24.0063C25.2091 24.0063 24.2384 24.6215 23.4372 25.8346C23.0823 26.3724 22.6516 26.6338 22.1209 26.6338C21.8072 26.6338 21.4505 26.5443 21.0612 26.3675C17.9199 24.9431 15.6768 22.759 14.3942 19.876C13.7741 18.4826 13.9751 17.5718 15.0664 16.8305C15.6861 16.4099 16.8396 15.6269 16.7578 14.1275C16.6653 12.4248 12.9084 7.30148 11.3254 6.71963C10.6552 6.47317 9.95107 6.47089 9.22873 6.71391C7.40894 7.32567 6.10306 8.40001 5.4519 9.82057C4.82263 11.1932 4.85103 12.805 5.53409 14.4815C7.50864 19.329 10.2847 23.5554 13.7856 27.043C17.2123 30.457 21.4239 33.2536 26.3035 35.3547C26.7434 35.5439 27.2047 35.6472 27.5415 35.7225C27.6563 35.7483 27.7554 35.7703 27.8277 35.7901C27.8674 35.8009 27.9083 35.8068 27.9494 35.8071L27.988 35.8073C27.9881 35.8073 27.988 35.8073 27.9882 35.8073C30.2832 35.8073 33.0389 33.7101 33.8853 31.3192C34.6268 29.2257 33.2729 28.1909 32.1851 27.3594Z" fill="#2E3A59"/>
<path d="M22.4576 12.995C22.0647 13.0049 21.2469 13.0252 20.96 13.8581C20.8258 14.2472 20.8419 14.5852 21.0079 14.8624C21.2514 15.2692 21.7182 15.3939 22.1427 15.4623C23.6822 15.7094 24.4728 16.5607 24.631 18.1412C24.7044 18.8782 25.2007 19.3928 25.8379 19.3928H25.838C25.8851 19.3928 25.9332 19.3901 25.9812 19.3842C26.7475 19.2931 27.1191 18.73 27.0855 17.7109C27.0978 16.6473 26.5411 15.4398 25.5944 14.4779C24.6443 13.5132 23.4992 12.9698 22.4576 12.995Z" fill="#2E3A59"/>
</svg>
