<svg width="36" height="36" viewBox="0 0 36 36" fill="none" xmlns="http://www.w3.org/2000/svg">
<rect width="36" height="36" rx="7" fill="#2D3469"/>
<path d="M28.7764 12.2119C28.9339 11.6887 28.7764 11.3051 28.0316 11.3051H25.5645C24.9368 11.3051 24.6499 11.637 24.4924 12.0015C24.4924 12.0015 23.238 15.0604 21.4605 17.0437C20.8868 17.6209 20.6246 17.8031 20.3119 17.8031C20.1555 17.8031 19.9282 17.6209 19.9282 17.0977V12.2119C19.9282 11.5841 19.7471 11.3051 19.224 11.3051H15.3473C14.9558 11.3051 14.7195 11.5954 14.7195 11.8721C14.7195 12.4661 15.6082 12.6034 15.6994 14.2774V17.9089C15.6994 18.7042 15.5565 18.8494 15.2415 18.8494C14.4056 18.8494 12.3716 15.7792 11.1645 12.2647C10.9294 11.5819 10.692 11.3062 10.062 11.3062H7.596C6.89063 11.3062 6.75 11.6381 6.75 12.0026C6.75 12.6574 7.58588 15.8974 10.6436 20.1825C12.6821 23.1086 15.552 24.6949 18.1665 24.6949C19.7336 24.6949 19.9271 24.3427 19.9271 23.7352V21.5235C19.9271 20.8192 20.0767 20.6775 20.5729 20.6775C20.9374 20.6775 21.5651 20.862 23.0287 22.2716C24.7005 23.9434 24.9773 24.6937 25.9166 24.6937H28.3826C29.0869 24.6937 29.439 24.3416 29.2365 23.6464C29.0149 22.9545 28.2161 21.9476 27.1564 20.7562C26.5804 20.0767 25.7197 19.3455 25.4576 18.9799C25.092 18.5085 25.1977 18.3004 25.4576 17.8819C25.4587 17.883 28.4636 13.6507 28.7764 12.2119V12.2119Z" fill="white"/>
</svg>
